<svg width="32" height="32" viewBox="0 0 32 32" fill="none" xmlns="http://www.w3.org/2000/svg">
<g clip-path="url(#clip0)">
<path d="M31.8697 13.6474L26.5137 6.68993C26.3155 6.4326 25.9539 6.36913 25.6797 6.54344L22.2217 8.74266H17.7117C17.6534 8.74266 17.5953 8.75511 17.5391 8.77147L14.0423 9.77806L10.4139 8.78563L6.88822 6.54344C6.61869 6.37206 6.26371 6.43016 6.06327 6.6787L0.139196 14.0166C-0.0736943 14.2803 -0.0385381 14.6653 0.218298 14.8862L3.32328 17.5583L6.10892 21.3122C5.29423 22.1802 5.3101 23.5491 6.15775 24.397C6.53348 24.7725 7.01127 24.9846 7.50272 25.0339C7.48563 25.1453 7.47684 25.2583 7.47684 25.373C7.47684 25.9653 7.70756 26.5222 8.12626 26.9409C8.5452 27.3599 9.10209 27.5906 9.69437 27.5906C9.70243 27.5906 9.71024 27.5901 9.71806 27.5898C9.71781 27.605 9.71708 27.6199 9.71708 27.635C9.71708 28.2273 9.94779 28.7842 10.3665 29.2031C10.7854 29.6218 11.3423 29.8525 11.9346 29.8525C12.0516 29.8525 12.1673 29.843 12.2808 29.8254C12.3289 30.3186 12.5415 30.7986 12.9185 31.1755C13.3506 31.6079 13.9185 31.824 14.4864 31.824C15.0542 31.824 15.6221 31.6079 16.0545 31.1755L16.3936 30.8364L16.5359 30.9512C16.9646 31.3664 17.5213 31.574 18.0779 31.574C18.6458 31.574 19.2137 31.3579 19.6458 30.9255C20.087 30.4844 20.303 29.9021 20.294 29.3227C20.8731 29.3315 21.4556 29.1157 21.8968 28.6748C22.3374 28.2339 22.5535 27.6521 22.545 27.073C23.1482 27.0825 23.7205 26.8508 24.1475 26.4238C24.5887 25.9827 24.8047 25.4004 24.7957 24.821C25.3753 24.8298 25.9573 24.614 26.3985 24.1728C27.1514 23.4199 27.2483 22.2561 26.69 21.397L28.7239 17.1372L31.7818 14.5058C32.0345 14.2883 32.073 13.9114 31.8697 13.6474ZM6.68754 7.90306L9.22269 9.51512L3.7078 16.2339L1.49784 14.3318L6.68754 7.90306ZM7.0452 22.1482L7.81034 21.383C7.83353 21.3599 7.85795 21.3379 7.88285 21.3174C8.03251 21.1953 8.21366 21.1225 8.40556 21.1052C8.41093 21.1047 8.41654 21.1047 8.42191 21.1045C8.44926 21.1023 8.4766 21.1008 8.50419 21.1011C8.7664 21.1047 9.01005 21.2119 9.19071 21.4026C9.5452 21.7773 9.52616 22.3896 9.14823 22.7676L8.40629 23.5095C8.03104 23.8848 7.42045 23.8848 7.0452 23.5095C6.66996 23.134 6.66996 22.5234 7.0452 22.1482ZM9.01371 26.0535C8.83183 25.8718 8.73173 25.6301 8.73173 25.373C8.73173 25.116 8.83183 24.8743 9.01371 24.6924L10.4974 23.2087C10.7815 22.9246 11.2283 22.8467 11.5916 23.0198C11.9661 23.1982 12.1768 23.6047 12.1219 24.0137C12.0926 24.2319 11.991 24.4375 11.8352 24.5935L10.375 26.0535C10.1932 26.2353 9.95145 26.3354 9.69437 26.3354C9.43729 26.3354 9.19559 26.2353 9.01371 26.0535ZM11.2539 28.3154C11.0721 28.1338 10.972 27.8921 10.972 27.635C10.972 27.3779 11.0721 27.1362 11.2539 26.9543L12.7373 25.4707C13.0413 25.167 13.5288 25.1016 13.9009 25.3181C14.2408 25.5159 14.4187 25.904 14.3604 26.2908C14.3284 26.5034 14.2273 26.7034 14.0752 26.8555L12.6153 28.3154C12.4334 28.4973 12.1917 28.5974 11.9346 28.5974C11.6775 28.5974 11.4358 28.4973 11.2539 28.3154ZM13.8057 30.2881C13.4305 29.9128 13.4305 29.3022 13.8057 28.927L14.5708 28.1619C14.594 28.1387 14.6182 28.1169 14.6431 28.0964C14.6438 28.0959 14.6443 28.0954 14.6448 28.095C14.7693 27.9939 14.9156 27.9263 15.0716 27.8967C15.0752 27.8962 15.0789 27.8957 15.0826 27.8953C15.1094 27.8904 15.1368 27.8865 15.1641 27.884C15.1751 27.883 15.1861 27.883 15.1973 27.8823C15.2198 27.8811 15.242 27.8796 15.2647 27.8799C15.5267 27.8835 15.7705 27.9905 15.9512 28.1814C15.9734 28.2048 15.9942 28.2292 16.0132 28.2544C16.3018 28.6316 16.263 29.1919 15.9048 29.5503L15.1668 30.2883C14.7915 30.6636 14.1809 30.6633 13.8057 30.2881ZM25.511 23.2854C25.1358 23.6609 24.5252 23.6606 24.1499 23.2854C24.1363 23.2717 24.1219 23.259 24.1072 23.2471L20.0726 19.1699C19.8287 18.9236 19.4314 18.9216 19.1851 19.1655C18.9388 19.4092 18.9368 19.8064 19.1805 20.0527L23.2588 24.1736C23.2593 24.1741 23.2598 24.1746 23.2603 24.175C23.6355 24.5503 23.6355 25.1611 23.2603 25.5364C23.0784 25.7183 22.8367 25.8183 22.5796 25.8183C22.3223 25.8183 22.0806 25.7183 21.899 25.5364L19.1707 22.7798C18.927 22.5334 18.5298 22.5315 18.2835 22.7751C18.0371 23.019 18.0352 23.4163 18.2788 23.6626L20.9654 26.3769C20.979 26.394 20.9937 26.4104 21.0093 26.426C21.3846 26.8013 21.3846 27.4121 21.0093 27.7873C20.6338 28.1626 20.023 28.1623 19.6477 27.7871L18.1587 26.2825C17.9148 26.0361 17.5176 26.0339 17.2713 26.2778C17.0249 26.5215 17.023 26.9187 17.2666 27.165L18.7142 28.6274C18.7278 28.6445 18.7425 28.6611 18.7583 28.6767C19.1336 29.052 19.1336 29.6628 18.7583 30.0381C18.3831 30.4136 17.7725 30.4133 17.3973 30.0381C17.354 29.9949 17.3033 29.9617 17.2549 29.9246C17.2139 29.8933 17.2032 29.8716 17.2237 29.8218C17.2444 29.7712 17.2754 29.7256 17.2962 29.6748C17.3191 29.6182 17.3377 29.5598 17.3558 29.5012C17.4519 29.1912 17.4803 28.8577 17.4371 28.5359C17.354 27.9184 17.0144 27.3613 16.4998 27.0088C16.2217 26.8186 15.8999 26.6938 15.5664 26.647C15.7281 25.9341 15.534 25.1611 15.0291 24.6277C14.6136 24.1887 14.0523 23.9424 13.4485 23.9341C13.4266 23.9338 13.4046 23.9338 13.3824 23.9341C13.3958 23.3579 13.1863 22.7854 12.7891 22.3657C12.3733 21.9267 11.8121 21.6804 11.2085 21.6721C11.0291 21.6697 10.8479 21.6887 10.6731 21.729C10.5984 21.2092 10.3365 20.7283 9.93974 20.3843C9.54545 20.043 9.0496 19.8535 8.52152 19.8462C7.96561 19.8381 7.41947 20.0432 7.00663 20.416L4.58109 17.1477L10.3838 10.0784L12.2332 10.5842L9.81791 14.8462C9.52592 15.3616 9.45219 15.9597 9.61015 16.5305C9.7681 17.1016 10.1387 17.5766 10.6541 17.8686C10.6863 17.887 10.7188 17.9043 10.7517 17.9209C10.7542 17.9221 10.7566 17.9233 10.7593 17.9245C10.846 17.9678 10.9351 18.0049 11.0254 18.0361C11.4461 18.1819 11.9004 18.1977 12.3387 18.0766C12.9095 17.9187 13.3846 17.5478 13.6766 17.0327L15.2461 14.2629L18.0486 14.4617L25.5113 21.9241C25.8863 22.2996 25.8863 22.9101 25.511 23.2854ZM25.771 20.4092L18.7703 13.4087C18.7571 13.3953 18.7432 13.3826 18.7288 13.3706C18.628 13.2866 18.503 13.2358 18.3711 13.2266L14.9397 12.9831C14.7024 12.9668 14.4666 13.093 14.3494 13.2998L12.5848 16.4141C12.458 16.6377 12.2517 16.7986 12.0039 16.8672C11.7564 16.9358 11.4966 16.9036 11.2727 16.7768C11.0491 16.6501 10.8882 16.4438 10.8196 16.196C10.751 15.9482 10.783 15.6885 10.91 15.4648L13.2657 11.3074L14.2203 11.0327C14.2266 11.0307 14.2327 11.0283 14.2391 11.0264L17.8018 9.99755H22.1065L27.4805 16.8291L25.771 20.4092ZM28.3025 15.8442L23.3328 9.52318L25.8692 7.91014L30.513 13.9421L28.3025 15.8442Z" fill="#1F2326"/>
<path d="M19.3862 7.56445C19.5469 7.56445 19.7075 7.50317 19.8301 7.38062L24.1162 3.09448C24.3613 2.84937 24.3613 2.45215 24.1162 2.20703C23.8711 1.96191 23.4739 1.96191 23.2288 2.20703L18.9426 6.49316C18.6975 6.73828 18.6975 7.1355 18.9426 7.38062C19.0652 7.50317 19.2258 7.56445 19.3862 7.56445Z" fill="#1F2326"/>
<path d="M12.1692 7.38062C12.2918 7.50317 12.4524 7.56445 12.613 7.56445C12.7734 7.56445 12.9341 7.50317 13.0566 7.38062C13.3018 7.1355 13.3018 6.73828 13.0566 6.49316L8.77051 2.20703C8.52539 1.96191 8.12817 1.96191 7.88306 2.20703C7.63794 2.45215 7.63794 2.84937 7.88306 3.09448L12.1692 7.38062Z" fill="#1F2326"/>
<path d="M16.0005 7.56446C16.3469 7.56446 16.6279 7.28345 16.6279 6.93701V3.38989C16.6279 3.04346 16.3469 2.76245 16.0005 2.76245C15.654 2.76245 15.373 3.04346 15.373 3.38989V6.93701C15.373 7.28345 15.654 7.56446 16.0005 7.56446Z" fill="#1F2326"/>
<path d="M15.4208 1.11572C15.5204 1.35717 15.7687 1.51562 16.0306 1.50195C16.2894 1.48852 16.5167 1.31372 16.5968 1.06738C16.6771 0.819086 16.5897 0.536127 16.3817 0.377924C16.1696 0.216303 15.8737 0.20727 15.6517 0.353998C15.4042 0.517573 15.3082 0.843256 15.4208 1.11572Z" fill="#1F2326"/>
</g>
<defs>
<clipPath id="clip0">
<rect width="32" height="32" fill="white"/>
</clipPath>
</defs>
</svg>
