<svg width="20" height="20" viewBox="0 0 20 20" fill="none" xmlns="http://www.w3.org/2000/svg">
<path d="M18.5745 13.2394C18.564 13.1335 18.5299 13.0312 18.4747 12.9401C18.5388 12.8322 18.5732 12.7092 18.5745 12.5837V1.62505C18.5745 1.23139 18.2554 0.912292 17.8617 0.912292H2.13471C1.74105 0.912292 1.42195 1.23139 1.42195 1.62505V12.5837C1.42324 12.7092 1.45768 12.8322 1.52174 12.9401C1.46779 13.0315 1.43492 13.1337 1.42552 13.2394L0 18.2787V18.3749C0 18.7685 0.319093 19.0876 0.712758 19.0876H19.2872C19.6809 19.0876 20 18.7685 20 18.3749L18.5745 13.2394ZM2.13471 1.62505H17.8617V12.5837H2.13471V1.62505ZM8.50321 18.3749L8.69565 16.9814H11.3293L11.4897 18.3749H8.50321ZM12.2095 18.3749L12.0385 16.9066C12.0052 16.5382 11.6956 16.2565 11.3257 16.258H8.69922C8.33059 16.2563 8.02147 16.536 7.98646 16.903L7.78689 18.3677H0.72345L2.12046 13.3784V13.2822H17.8617L19.2872 18.3606L12.2095 18.3749Z" fill="#1F2326"/>
<path d="M16.6577 2.31647H3.33978C3.14297 2.31647 2.9834 2.47604 2.9834 2.67285V11.536C2.9834 11.7328 3.14297 11.8924 3.33978 11.8924H16.6577C16.8545 11.8924 17.014 11.7328 17.014 11.536V2.67285C17.014 2.47604 16.8545 2.31647 16.6577 2.31647ZM3.69616 11.1832V3.02923H16.3013V11.1832H3.69616Z" fill="#1F2326"/>
<path d="M16.9917 13.6814H3.00384C2.80703 13.6814 2.64746 13.841 2.64746 14.0378C2.64746 14.2346 2.80703 14.3942 3.00384 14.3942H16.9917C17.1885 14.3942 17.3481 14.2346 17.3481 14.0378C17.3481 13.841 17.1885 13.6814 16.9917 13.6814Z" fill="#1F2326"/>
<path d="M17.6086 15.196H2.38763C2.19082 15.196 2.03125 15.3556 2.03125 15.5524C2.03125 15.7492 2.19082 15.9087 2.38763 15.9087H17.6086C17.8054 15.9087 17.965 15.7492 17.965 15.5524C17.965 15.3556 17.8054 15.196 17.6086 15.196Z" fill="#1F2326"/>
</svg>
