<svg width="32" height="32" viewBox="0 0 32 32" fill="none" xmlns="http://www.w3.org/2000/svg">
<g clip-path="url(#clip0)">
<path d="M29.8462 16.6153H19.0769C19.0742 14.7975 17.7512 13.2509 15.9557 12.9667C15.7352 11.567 14.7322 10.4175 13.3754 10.0092C12.7901 8.06002 10.7355 6.95441 8.78639 7.53971C7.60069 7.89579 6.673 8.82341 6.31692 10.0092C4.96008 10.4175 3.95716 11.567 3.73662 12.9667C1.94116 13.2509 0.618155 14.7975 0.615386 16.6153C0.275539 16.6153 1.06355e-06 16.8909 1.06355e-06 17.2307V20.3076C-0.000152783 20.3899 0.0163857 20.4713 0.0486165 20.547C0.514078 25.9581 5.278 29.9673 10.6891 29.5019C15.3128 29.1041 19.0292 25.528 19.6043 20.923H29.8462C31.0357 20.923 32 19.9587 32 18.7692C32 17.5796 31.0357 16.6153 29.8462 16.6153ZM4.30769 14.1538C4.64754 14.1538 4.92308 13.8783 4.92308 13.5384C4.92354 12.3529 5.77054 11.3369 6.93662 11.123C7.18669 11.0765 7.38231 10.8808 7.42892 10.6307C7.67269 9.29672 8.95169 8.41295 10.2857 8.65672C11.2902 8.84025 12.0762 9.62625 12.2597 10.6307C12.3063 10.8808 12.5019 11.0764 12.752 11.123C13.9195 11.3353 14.7685 12.3517 14.7692 13.5384C14.7692 13.8783 15.0448 14.1538 15.3846 14.1538C16.7441 14.1538 17.8462 15.2559 17.8462 16.6153H1.84615C1.84615 15.2559 2.94823 14.1538 4.30769 14.1538ZM29.8462 19.6923H19.0455C18.7209 19.6916 18.4516 19.9431 18.4302 20.267C18.1194 25.0062 14.0256 28.596 9.28646 28.2853C5.22923 28.0192 1.91285 24.9479 1.33662 20.923H11.0769C11.4168 20.923 11.6923 20.6475 11.6923 20.3076C11.6923 19.9678 11.4168 19.6923 11.0769 19.6923H1.23077V17.8461H29.8462C30.3559 17.8461 30.7692 18.2594 30.7692 18.7692C30.7692 19.279 30.3559 19.6923 29.8462 19.6923Z" fill="#1F2326"/>
<path d="M8.0003 12.3076H6.76953V13.5384H8.0003V12.3076Z" fill="#1F2326"/>
<path d="M9.84601 14.1538H8.61523V15.3846H9.84601V14.1538Z" fill="#1F2326"/>
<path d="M6.76886 14.769H5.53809V15.9998H6.76886V14.769Z" fill="#1F2326"/>
<path d="M10.4612 9.84595H9.23047V11.0767H10.4612V9.84595Z" fill="#1F2326"/>
<path d="M14.1536 14.769H12.9229V15.9998H14.1536V14.769Z" fill="#1F2326"/>
<path d="M12.3079 12.3076H11.0771V13.5384H12.3079V12.3076Z" fill="#1F2326"/>
<path d="M16.0003 19.6921H15.3849C15.0451 19.6921 14.7695 19.9677 14.7695 20.3075C14.7695 20.6474 15.0451 20.9229 15.3849 20.9229H16.0003C16.3401 20.9229 16.6157 20.6474 16.6157 20.3075C16.6157 19.9677 16.3401 19.6921 16.0003 19.6921Z" fill="#1F2326"/>
<path d="M12.3078 4.92296H12.9232V5.53835C12.9232 5.87819 13.1987 6.15373 13.5385 6.15373C13.8784 6.15373 14.1539 5.87819 14.1539 5.53835V4.92296H14.7693C15.1092 4.92296 15.3847 4.64743 15.3847 4.30758C15.3847 3.96773 15.1092 3.69219 14.7693 3.69219H14.1539V3.07681C14.1539 2.73696 13.8784 2.46143 13.5385 2.46143C13.1987 2.46143 12.9232 2.73696 12.9232 3.07681V3.69219H12.3078C11.9679 3.69219 11.6924 3.96773 11.6924 4.30758C11.6924 4.64743 11.9679 4.92296 12.3078 4.92296Z" fill="#1F2326"/>
<path d="M16.6154 7.99987H17.2308V8.61525C17.2308 8.9551 17.5063 9.23063 17.8462 9.23063C18.186 9.23063 18.4615 8.9551 18.4615 8.61525V7.99987H19.0769C19.4168 7.99987 19.6923 7.72433 19.6923 7.38448C19.6923 7.04464 19.4168 6.7691 19.0769 6.7691H18.4615V6.15371C18.4615 5.81387 18.186 5.53833 17.8462 5.53833C17.5063 5.53833 17.2308 5.81387 17.2308 6.15371V6.7691H16.6154C16.2755 6.7691 16 7.04464 16 7.38448C16 7.72433 16.2755 7.99987 16.6154 7.99987Z" fill="#1F2326"/>
</g>
<defs>
<clipPath id="clip0">
<rect width="32" height="32" fill="white"/>
</clipPath>
</defs>
</svg>
