<svg width="20" height="20" viewBox="0 0 20 20" fill="none" xmlns="http://www.w3.org/2000/svg">
<g clip-path="url(#clip0)">
<path d="M19.4752 15.4289L15.4271 12.7293C14.9134 12.3895 14.2248 12.5013 13.845 12.9863L12.6658 14.5024C12.5143 14.7022 12.2388 14.7602 12.0196 14.6384L11.7953 14.5147C11.0517 14.1094 10.1266 13.6049 8.26251 11.7401C6.39845 9.87541 5.89286 8.94953 5.48757 8.20734L5.36458 7.98303C5.24112 7.76385 5.29799 7.48721 5.49788 7.33446L7.01297 6.15565C7.49774 5.77582 7.60972 5.08741 7.27028 4.57354L4.57068 0.52547C4.2228 0.00218837 3.52486 -0.154898 2.9863 0.168843L1.29355 1.18568C0.761671 1.49837 0.371456 2.00478 0.204723 2.59879C-0.404835 4.81979 0.0537292 8.65289 5.70024 14.3001C10.1919 18.7914 13.5358 19.9992 15.8341 19.9992C16.363 20.0015 16.8899 19.9327 17.4005 19.7946C17.9947 19.6281 18.5012 19.2378 18.8136 18.7058L19.8315 17.014C20.1557 16.4754 19.9987 15.777 19.4752 15.4289ZM19.2572 16.6721L18.2417 18.3648C18.0173 18.7488 17.653 19.0312 17.2252 19.1527C15.1748 19.7156 11.5927 19.2494 6.17181 13.8285C0.750931 8.40762 0.284711 4.82581 0.847635 2.77514C0.969336 2.34676 1.25203 1.98201 1.6365 1.75728L3.32926 0.741766C3.56294 0.601162 3.86586 0.669316 4.01681 0.896391L5.48328 3.09806L6.71411 4.94411C6.86151 5.16701 6.81308 5.46575 6.6028 5.63069L5.08736 6.8095C4.62618 7.16214 4.49448 7.80021 4.77842 8.30662L4.89875 8.52526C5.32471 9.30647 5.85428 10.2783 7.78766 12.2114C9.72105 14.1444 10.6926 14.674 11.4734 15.0999L11.6924 15.2206C12.1988 15.5045 12.8369 15.3728 13.1895 14.9117L14.3683 13.3962C14.5333 13.1861 14.8319 13.1377 15.0549 13.2849L19.1026 15.9845C19.3299 16.1353 19.398 16.4384 19.2572 16.6721Z" fill="#1F2326"/>
<path d="M11.3323 3.33503C14.46 3.33851 16.9946 5.87317 16.9981 9.00087C16.9981 9.18494 17.1473 9.33414 17.3314 9.33414C17.5155 9.33414 17.6647 9.18494 17.6647 9.00087C17.6608 5.50518 14.828 2.67232 11.3323 2.66849C11.1482 2.66849 10.999 2.81768 10.999 3.00176C10.999 3.18583 11.1482 3.33503 11.3323 3.33503Z" fill="#1F2326"/>
<path d="M11.3323 5.33475C13.3561 5.33714 14.996 6.97713 14.9984 9.00089C14.9984 9.18496 15.1477 9.33416 15.3317 9.33416C15.5158 9.33416 15.665 9.18496 15.665 9.00089C15.6622 6.60914 13.724 4.67095 11.3323 4.66821C11.1482 4.66821 10.999 4.81741 10.999 5.00148C10.999 5.18556 11.1482 5.33475 11.3323 5.33475Z" fill="#1F2326"/>
<path d="M11.3323 7.33448C12.2522 7.33557 12.9976 8.08101 12.9987 9.00091C12.9987 9.18499 13.148 9.33418 13.332 9.33418C13.516 9.33418 13.6653 9.18499 13.6653 9.00091C13.6638 7.71306 12.6202 6.66938 11.3323 6.66794C11.1482 6.66794 10.999 6.81713 10.999 7.00121C10.999 7.18528 11.1482 7.33448 11.3323 7.33448Z" fill="#1F2326"/>
</g>
<defs>
<clipPath id="clip0">
<rect width="20" height="20" fill="white"/>
</clipPath>
</defs>
</svg>
