<svg width="20" height="20" viewBox="0 0 20 20" fill="none" xmlns="http://www.w3.org/2000/svg">
<g clip-path="url(#clip0)">
<path d="M6.5619 13.6904C7.38557 14.8517 8.20792 15.8904 8.75292 16.5594C8.83226 16.6567 8.9066 16.747 8.97859 16.834H7.33393C7.14983 16.834 7.00061 16.9833 7.00061 17.1674C7.00061 17.3515 7.14983 17.5007 7.33393 17.5007H12.6672C12.8513 17.5007 13.0006 17.3515 13.0006 17.1674C13.0006 16.9833 12.8513 16.834 12.6672 16.834H11.0226C11.0946 16.747 11.1689 16.6567 11.2486 16.5594C11.7932 15.8927 12.6153 14.8517 13.4393 13.6904C14.2568 12.5613 14.9927 11.3753 15.6413 10.1414C16.3219 8.80471 16.6673 7.69506 16.6673 6.84306C16.6696 5.0727 15.9671 3.37426 14.7149 2.12269C14.6313 2.03597 14.5074 2.00113 14.3908 2.03156C14.2743 2.06199 14.1832 2.15292 14.1526 2.26945C14.122 2.38597 14.1567 2.50992 14.2433 2.59367C15.3703 3.72039 16.0026 5.24934 16.0006 6.84302C16.0006 7.58904 15.6799 8.59701 15.0473 9.8387C14.4133 11.044 13.6942 12.2025 12.8953 13.3054C12.0826 14.4517 11.2703 15.4787 10.732 16.1387C10.553 16.3581 10.392 16.552 10.2546 16.7161C10.1905 16.7893 10.0979 16.8312 10.0006 16.8312C9.90332 16.8312 9.81074 16.7892 9.74664 16.7161C9.60929 16.5521 9.44832 16.3581 9.26929 16.1387C8.73097 15.4791 7.91862 14.452 7.10596 13.3054C6.30709 12.2025 5.58791 11.044 4.95396 9.8387C4.32064 8.59701 4.00064 7.58904 4.00064 6.84302C4.00044 4.4286 5.44436 2.2482 7.66733 1.30601C9.16101 0.679676 10.8437 0.679676 12.3374 1.30601C12.447 1.35249 12.5732 1.33698 12.6683 1.26523C12.7634 1.19351 12.813 1.07647 12.7984 0.958232C12.7839 0.83999 12.7074 0.738505 12.5977 0.69202C9.2032 -0.739704 5.29076 0.850693 3.85798 4.24469C3.51052 5.0668 3.33232 5.95052 3.334 6.84302C3.334 7.69502 3.67935 8.80471 4.36002 10.143C5.00853 11.3764 5.74444 12.5618 6.5619 13.6904Z" fill="#1F2326"/>
<path d="M10.0007 3.834C10.1848 3.834 10.3341 3.68478 10.3341 3.50068C10.3341 3.31658 10.1848 3.16736 10.0007 3.16736C8.41049 3.16732 7.04166 4.29068 6.73138 5.85038C6.42111 7.41007 7.25584 8.97172 8.72502 9.58031C10.1942 10.1889 11.8887 9.67488 12.7722 8.35265C13.6558 7.03042 13.4822 5.26819 12.3577 4.14369C12.274 4.05705 12.1501 4.02228 12.0336 4.05279C11.917 4.0833 11.826 4.17432 11.7955 4.29084C11.765 4.4074 11.7998 4.53131 11.8864 4.61502C12.786 5.51459 12.9249 6.92433 12.2181 7.98214C11.5114 9.03996 10.1558 9.45121 8.98042 8.96441C7.80506 8.47761 7.13724 7.22831 7.38537 5.98053C7.6335 4.73276 8.72854 3.83404 10.0007 3.834Z" fill="#1F2326"/>
<path d="M19.8745 18.3577L17.8245 14.6911C17.6391 14.3653 17.2923 14.165 16.9175 14.1674H14.5418C14.3577 14.1674 14.2085 14.3166 14.2085 14.5007C14.2085 14.6848 14.3577 14.834 14.5418 14.834H16.9175C17.0509 14.8314 17.1754 14.901 17.2432 15.016L19.2925 18.6827C19.3483 18.7781 19.3472 18.8964 19.2895 18.9907C19.2214 19.1032 19.0983 19.1706 18.9668 19.1674H1.03347C0.902138 19.1705 0.779169 19.1031 0.711122 18.9907C0.653465 18.8964 0.652333 18.7781 0.708114 18.6827L2.75746 15.016C2.82507 14.9011 2.94945 14.8315 3.08277 14.834H5.45844C5.64254 14.834 5.79176 14.6848 5.79176 14.5007C5.79176 14.3166 5.64254 14.1674 5.45844 14.1674H3.08281C2.70781 14.1649 2.3607 14.3652 2.17515 14.6911L0.125456 18.3577C-0.0454432 18.6596 -0.0414978 19.0299 0.135807 19.3281C0.322605 19.6456 0.665145 19.8387 1.03347 19.8341H18.9668C19.3351 19.8386 19.6775 19.6455 19.8642 19.3281C20.0415 19.0299 20.0454 18.6596 19.8745 18.3577Z" fill="#1F2326"/>
<path d="M16.3337 15.834H15.0004C14.9346 15.8342 14.8702 15.8536 14.8154 15.8901L13.8154 16.5567C13.6622 16.6589 13.6209 16.8659 13.7231 17.0191C13.8252 17.1723 14.0322 17.2136 14.1854 17.1114L15.1004 16.5008H16.3337C16.5178 16.5008 16.6671 16.3515 16.6671 16.1674C16.6671 15.9833 16.5178 15.834 16.3337 15.834Z" fill="#1F2326"/>
<path d="M14.333 18.1674C14.333 18.3515 14.4822 18.5007 14.6663 18.5007H17.333C17.5171 18.5007 17.6663 18.3515 17.6663 18.1674C17.6663 17.9833 17.5171 17.8341 17.333 17.8341H14.6663C14.4822 17.8341 14.333 17.9833 14.333 18.1674Z" fill="#1F2326"/>
<path d="M5.99966 17.1674C6.14661 17.1676 6.27634 17.0715 6.31903 16.9309C6.36173 16.7903 6.30728 16.6383 6.18501 16.5567L5.18501 15.8901C5.13008 15.8536 5.06559 15.8341 4.99965 15.834H3.66633C3.48223 15.834 3.33301 15.9833 3.33301 16.1674C3.33301 16.3515 3.48227 16.5007 3.66633 16.5007H4.89965L5.81567 17.1114C5.87016 17.1478 5.93419 17.1673 5.99966 17.1674Z" fill="#1F2326"/>
<path d="M2.66731 17.8341C2.4832 17.8341 2.33398 17.9833 2.33398 18.1674C2.33398 18.3515 2.4832 18.5007 2.66731 18.5007H5.334C5.5181 18.5007 5.66732 18.3515 5.66732 18.1674C5.66732 17.9833 5.5181 17.8341 5.334 17.8341H2.66731Z" fill="#1F2326"/>
</g>
<defs>
<clipPath id="clip0">
<rect width="20" height="20" fill="white"/>
</clipPath>
</defs>
</svg>
