<svg width="20" height="20" viewBox="0 0 20 20" fill="none" xmlns="http://www.w3.org/2000/svg">
<g clip-path="url(#clip0)">
<path d="M19.8029 0.05134C19.6811 -0.0181913 19.5313 -0.0170194 19.4106 0.0543868L12.2522 4.28736C12.0665 4.39716 12.005 4.63669 12.1148 4.8224C12.2246 5.00806 12.4641 5.06958 12.6498 4.95982L17.7858 1.92275L8.2192 11.849L3.46107 10.3933L9.67064 6.72146C9.85635 6.61161 9.91787 6.37208 9.80807 6.18638C9.6983 6.00072 9.45873 5.93911 9.27303 6.04896L2.30119 10.1716C2.16799 10.2504 2.09381 10.4003 2.11213 10.554C2.13045 10.7077 2.23775 10.8361 2.38572 10.8814L8.06811 12.6198L10.575 17.1828C10.5776 17.1876 10.5803 17.1915 10.5831 17.1951C10.6249 17.2649 10.6876 17.3218 10.7658 17.3547C10.8148 17.3753 10.8662 17.3854 10.9173 17.3854C11.0174 17.3854 11.116 17.3468 11.1904 17.2741L14.073 14.4569L19.4951 16.1157C19.5326 16.1272 19.5711 16.1328 19.6094 16.1328C19.692 16.1328 19.7737 16.1066 19.8417 16.0562C19.9413 15.9826 20 15.866 20 15.7422V0.390637C20 0.250363 19.9248 0.120832 19.8029 0.05134ZM10.5963 12.8606C10.5511 12.9259 10.5268 13.0035 10.5268 13.083V15.4725L8.81498 12.3567L16.39 4.49689L10.5963 12.8606ZM11.3081 16.0668V13.611L13.2217 14.1965L11.3081 16.0668ZM19.2188 15.2142L11.543 12.8659L19.2188 1.78532V15.2142Z" fill="#1F2326"/>
<path d="M6.42279 13.5772C6.27022 13.4247 6.02295 13.4247 5.87033 13.5772L2.22378 17.2238C2.07124 17.3763 2.07124 17.6237 2.22378 17.7763C2.30011 17.8525 2.40007 17.8906 2.50003 17.8906C2.59999 17.8906 2.69995 17.8525 2.77624 17.7762L6.42279 14.1297C6.57533 13.9772 6.57533 13.7298 6.42279 13.5772Z" fill="#1F2326"/>
<path d="M1.56526 18.4347C1.41269 18.2823 1.16542 18.2823 1.01284 18.4348L0.114404 19.3332C-0.0381348 19.4857 -0.0381348 19.7331 0.114404 19.8857C0.190693 19.9619 0.290654 20 0.390615 20C0.490576 20 0.590537 19.9619 0.666826 19.8856L1.56526 18.9872C1.7178 18.8346 1.7178 18.5873 1.56526 18.4347Z" fill="#1F2326"/>
<path d="M5.57203 19.3101C5.49941 19.2374 5.39863 19.1956 5.2959 19.1956C5.19273 19.1956 5.09238 19.2374 5.01973 19.3101C4.94707 19.3828 4.90527 19.4831 4.90527 19.5863C4.90527 19.689 4.94703 19.7898 5.01973 19.8624C5.09238 19.9351 5.19316 19.9769 5.2959 19.9769C5.39863 19.9769 5.49941 19.9351 5.57203 19.8624C5.64469 19.7898 5.68652 19.689 5.68652 19.5863C5.68652 19.4831 5.64473 19.3828 5.57203 19.3101Z" fill="#1F2326"/>
<path d="M8.47819 16.4037C8.32573 16.2512 8.07847 16.2512 7.92577 16.4037L5.99429 18.3352C5.84175 18.4877 5.84175 18.7351 5.99429 18.8876C6.07058 18.9639 6.17054 19.002 6.2705 19.002C6.37046 19.002 6.47042 18.9639 6.54671 18.8876L8.47819 16.9562C8.63073 16.8036 8.63073 16.5563 8.47819 16.4037Z" fill="#1F2326"/>
<path d="M15.1445 16.2554C14.992 16.1029 14.7447 16.1029 14.5921 16.2554L12.6554 18.1921C12.5029 18.3447 12.5029 18.592 12.6554 18.7446C12.7317 18.8208 12.8317 18.859 12.9316 18.859C13.0316 18.859 13.1315 18.8208 13.2078 18.7446L15.1445 16.8079C15.2971 16.6553 15.2971 16.408 15.1445 16.2554Z" fill="#1F2326"/>
<path d="M11.075 5.32463C11.0023 5.25197 10.9016 5.21017 10.7988 5.21017C10.6961 5.21017 10.5953 5.25197 10.5227 5.32463C10.45 5.39728 10.4082 5.49806 10.4082 5.60119C10.4082 5.70392 10.45 5.80431 10.5227 5.87697C10.5953 5.95002 10.6961 5.99142 10.7988 5.99142C10.9016 5.99142 11.0023 5.95002 11.075 5.87697C11.1476 5.80431 11.1895 5.70392 11.1895 5.60119C11.1895 5.49806 11.1477 5.39728 11.075 5.32463Z" fill="#1F2326"/>
</g>
<defs>
<clipPath id="clip0">
<rect width="20" height="20" fill="white"/>
</clipPath>
</defs>
</svg>
