<svg width="32" height="32" viewBox="0 0 32 32" fill="none" xmlns="http://www.w3.org/2000/svg">
<path d="M10.667 0C6.24873 0 2.66699 3.58173 2.66699 8V13.8667C2.66933 15.9275 4.33946 17.5977 6.40033 17.6H6.93366V16.5333H6.40033C4.92833 16.5316 3.73539 15.3387 3.73366 13.8667V8C3.73366 4.1708 6.83779 1.06667 10.667 1.06667C14.4962 1.06667 17.6003 4.1708 17.6003 8V13.8667C17.5986 15.3387 16.4057 16.5316 14.9337 16.5333H14.4003V17.6H14.9337C16.9945 17.5977 18.6647 15.9275 18.667 13.8667V8C18.667 3.58173 15.0853 0 10.667 0Z" fill="#1F2326"/>
<path d="M4.39535 25.1354L4.78522 24.5216L3.88442 23.9498L3.49455 24.5642C2.31541 26.4224 2.40295 28.8149 3.71482 30.5818V32H4.78148V30.4C4.78155 30.2788 4.74035 30.1612 4.66468 30.0666C3.53082 28.6492 3.42262 26.668 4.39535 25.1354Z" fill="#1F2326"/>
<path d="M29.3334 0H22.4001C20.9281 0.00173333 19.7351 1.19467 19.7334 2.66667V8C19.7351 9.472 20.9281 10.6649 22.4001 10.6667H23.4667V12.8C23.4667 13.0157 23.5965 13.2102 23.7958 13.2928C23.8605 13.3198 23.9299 13.3335 24.0001 13.3333C24.1415 13.3333 24.2771 13.2771 24.3771 13.1771L26.8875 10.6667H29.3334C30.8054 10.6649 31.9983 9.472 32.0001 8V2.66667C31.9983 1.19467 30.8054 0.00173333 29.3334 0ZM30.9334 8C30.9334 8.88367 30.2171 9.6 29.3334 9.6H26.6667C26.5253 9.6 26.3897 9.65627 26.2897 9.75627L24.5334 11.5125V10.1333C24.5334 9.8388 24.2946 9.6 24.0001 9.6H22.4001C21.5164 9.6 20.8001 8.88367 20.8001 8V2.66667C20.8001 1.783 21.5164 1.06667 22.4001 1.06667H29.3334C30.2171 1.06667 30.9334 1.783 30.9334 2.66667V8Z" fill="#1F2326"/>
<path d="M26.1337 2.66663H22.4004V3.73329H26.1337V2.66663Z" fill="#1F2326"/>
<path d="M29.3335 2.66663H27.2002V3.73329H29.3335V2.66663Z" fill="#1F2326"/>
<path d="M29.3337 4.80005H22.4004V5.86672H29.3337V4.80005Z" fill="#1F2326"/>
<path d="M26.1337 6.93335H22.4004V8.00002H26.1337V6.93335Z" fill="#1F2326"/>
<path d="M17.8395 24.5642L17.4496 23.9498L16.5488 24.5216L16.9387 25.136C17.9115 26.6683 17.8033 28.6494 16.6694 30.0666C16.5937 30.1612 16.5525 30.2788 16.5526 30.4V32H17.6192V30.5818C18.9311 28.8149 19.0186 26.4224 17.8395 24.5642Z" fill="#1F2326"/>
<path d="M31.4667 18.1333H26.6667C24.6656 18.1356 23.0223 19.7152 22.9408 21.7146L21.3333 24.6084V22.3999C21.331 20.339 19.6609 18.6689 17.6 18.6666H15.6507L15.6363 18.6554L15.6267 18.6666H14.4C13.8109 18.6666 13.3333 18.1891 13.3333 17.5999V16.345C14.9813 15.3935 15.9975 13.6361 16 11.7333V7.46659C15.9992 6.58293 15.7793 5.71326 15.36 4.9354C15.2257 4.68793 14.9221 4.58746 14.6667 4.70606L5.63947 8.95353C5.45253 9.04153 5.33327 9.22959 5.33333 9.43619V11.7333C5.33587 13.6361 6.35207 15.3935 8 16.345V17.5999C8 18.1891 7.52247 18.6666 6.93333 18.6666H3.73333C1.67247 18.6689 0.00233333 20.339 0 22.3999V31.9999H1.06667V22.3999C1.0684 20.9279 2.26133 19.735 3.73333 19.7333H5.4304L10.2331 26.4436C10.3317 26.5816 10.4901 26.6643 10.6597 26.6666H10.6667C10.8345 26.6666 10.9926 26.5875 11.0933 26.4532L16.16 19.7333H17.6C19.072 19.735 20.2649 20.9279 20.2667 22.3999V26.6666C20.2669 26.9611 20.5059 27.1997 20.8005 27.1994C20.9939 27.1992 21.1721 27.0944 21.2661 26.9252L23.7803 22.3999H26.8379L21.6379 31.9999H22.8512L28.0533 22.3999H28.2667C30.3275 22.3976 31.9977 20.7274 32 18.6666C32 18.3721 31.7612 18.1333 31.4667 18.1333ZM6.4 11.7333V9.77486L14.6352 5.89966C14.8322 6.39859 14.9333 6.93019 14.9333 7.46659V11.7333C14.9333 14.0897 13.0231 15.9999 10.6667 15.9999C8.31027 15.9999 6.4 14.0897 6.4 11.7333ZM10.6779 25.233L9.032 22.9332H12.4112L10.6779 25.233ZM13.2181 21.8666H8.26667L6.73973 19.7333H6.93333C8.11153 19.7333 9.06667 18.7781 9.06667 17.5999V16.8207C10.1081 17.1485 11.2252 17.1485 12.2667 16.8207V17.5999C12.2667 18.7781 13.2218 19.7333 14.4 19.7333H14.8267L13.2181 21.8666ZM28.2667 21.3333H24.0533C24.3083 20.0924 25.3999 19.2013 26.6667 19.1999H30.88C30.625 20.4408 29.5335 21.3319 28.2667 21.3333Z" fill="#1F2326"/>
</svg>
