<svg width="32" height="32" viewBox="0 0 32 32" fill="none" xmlns="http://www.w3.org/2000/svg">
<path d="M21 17H23V18H21V17Z" fill="#1F2326"/>
<path d="M5.5 23H6.5V24H5.5V23Z" fill="#1F2326"/>
<path d="M12.5 23H13.5V24H12.5V23Z" fill="#1F2326"/>
<path d="M24 23H25V24H24V23Z" fill="#1F2326"/>
<path d="M30.6435 14.7675L28.22 10.728C28.086 10.5065 27.8973 10.3232 27.672 10.1957C27.4467 10.0683 27.1924 10.0009 26.9335 10H19.5C19.3674 10 19.2402 10.0527 19.1464 10.1464C19.0527 10.2402 19 10.3674 19 10.5V20H18V18C18 17.8674 17.9473 17.7402 17.8536 17.6464C17.7598 17.5527 17.6326 17.5 17.5 17.5H15C14.8674 17.5 14.7402 17.5527 14.6465 17.6465L13.793 18.5H1.5C1.36739 18.5 1.24021 18.5527 1.14645 18.6464C1.05268 18.7402 1 18.8674 1 19V23C1 23.2652 1.10536 23.5196 1.29289 23.7071C1.48043 23.8946 1.73478 24 2 24H3.045C3.16252 24.6987 3.52384 25.3332 4.06482 25.7908C4.60581 26.2484 5.29144 26.4995 6 26.4995C6.70856 26.4995 7.39419 26.2484 7.93518 25.7908C8.47616 25.3332 8.83748 24.6987 8.955 24H10.045C10.1625 24.6987 10.5238 25.3332 11.0648 25.7908C11.6058 26.2484 12.2914 26.4995 13 26.4995C13.7086 26.4995 14.3942 26.2484 14.9352 25.7908C15.4762 25.3332 15.8375 24.6987 15.955 24H21.545C21.6625 24.6987 22.0238 25.3332 22.5648 25.7908C23.1058 26.2484 23.7914 26.4995 24.5 26.4995C25.2086 26.4995 25.8942 26.2484 26.4352 25.7908C26.9762 25.3332 27.3375 24.6987 27.455 24H29.5C29.8978 24 30.2794 23.842 30.5607 23.5607C30.842 23.2794 31 22.8978 31 22.5V16.054C31 15.6008 30.8767 15.1561 30.6435 14.7675ZM27.363 11.243L29.617 15H22V11H26.9335C27.0199 11.0003 27.1048 11.0229 27.18 11.0654C27.2552 11.108 27.3182 11.1691 27.363 11.243ZM19 21V23H18V21H19ZM6 25.5C5.60444 25.5 5.21776 25.3827 4.88886 25.1629C4.55996 24.9432 4.30362 24.6308 4.15224 24.2654C4.00087 23.8999 3.96126 23.4978 4.03843 23.1098C4.1156 22.7219 4.30608 22.3655 4.58579 22.0858C4.86549 21.8061 5.22186 21.6156 5.60982 21.5384C5.99778 21.4613 6.39991 21.5009 6.76537 21.6522C7.13082 21.8036 7.44318 22.06 7.66294 22.3889C7.8827 22.7178 8 23.1044 8 23.5C8 24.0304 7.78929 24.5391 7.41421 24.9142C7.03914 25.2893 6.53043 25.5 6 25.5ZM13 25.5C12.6044 25.5 12.2178 25.3827 11.8889 25.1629C11.56 24.9432 11.3036 24.6308 11.1522 24.2654C11.0009 23.8999 10.9613 23.4978 11.0384 23.1098C11.1156 22.7219 11.3061 22.3655 11.5858 22.0858C11.8655 21.8061 12.2219 21.6156 12.6098 21.5384C12.9978 21.4613 13.3999 21.5009 13.7654 21.6522C14.1308 21.8036 14.4432 22.06 14.6629 22.3889C14.8827 22.7178 15 23.1044 15 23.5C15 24.0304 14.7893 24.5391 14.4142 24.9142C14.0391 25.2893 13.5304 25.5 13 25.5ZM13 20.5C12.2917 20.5013 11.6067 20.7529 11.066 21.2104C10.5253 21.6679 10.1636 22.3017 10.045 23H8.955C8.83748 22.3013 8.47616 21.6668 7.93518 21.2092C7.39419 20.7516 6.70856 20.5005 6 20.5005C5.29144 20.5005 4.60581 20.7516 4.06482 21.2092C3.52384 21.6668 3.16252 22.3013 3.045 23H2V19.5H14C14.1326 19.5 14.2598 19.4473 14.3535 19.3535L15.207 18.5H17V23H15.955C15.8364 22.3017 15.4747 21.6679 14.934 21.2104C14.3933 20.7529 13.7083 20.5013 13 20.5ZM24.5 25.5C24.1044 25.5 23.7178 25.3827 23.3889 25.1629C23.06 24.9432 22.8036 24.6308 22.6522 24.2654C22.5009 23.8999 22.4613 23.4978 22.5384 23.1098C22.6156 22.7219 22.8061 22.3655 23.0858 22.0858C23.3655 21.8061 23.7219 21.6156 24.1098 21.5384C24.4978 21.4613 24.8999 21.5009 25.2654 21.6522C25.6308 21.8036 25.9432 22.06 26.1629 22.3889C26.3827 22.7178 26.5 23.1044 26.5 23.5C26.5 24.0304 26.2893 24.5391 25.9142 24.9142C25.5391 25.2893 25.0304 25.5 24.5 25.5ZM29.5 23H27.455C27.3375 22.3013 26.9762 21.6668 26.4352 21.2092C25.8942 20.7516 25.2086 20.5005 24.5 20.5005C23.7914 20.5005 23.1058 20.7516 22.5648 21.2092C22.0238 21.6668 21.6625 22.3013 21.545 23H20V11H21V15.5C21 15.6326 21.0527 15.7598 21.1464 15.8536C21.2402 15.9473 21.3674 16 21.5 16H29.9925C29.9925 16.018 30 16.0355 30 16.054V17H28C27.7348 17 27.4804 17.1054 27.2929 17.2929C27.1054 17.4804 27 17.7348 27 18V19C27 19.2652 27.1054 19.5196 27.2929 19.7071C27.4804 19.8946 27.7348 20 28 20H30V21H28.5V22H30V22.5C30 22.6326 29.9473 22.7598 29.8536 22.8536C29.7598 22.9473 29.6326 23 29.5 23ZM30 18V19H28V18H30Z" fill="#1F2326"/>
<path d="M1.297 15.457C1.4845 15.5405 5.935 17.5 9.5 17.5C13.065 17.5 17.515 15.5405 17.703 15.457C17.7914 15.4177 17.8665 15.3536 17.9192 15.2725C17.972 15.1914 18 15.0967 18 15V7C18 6.90326 17.972 6.80859 17.9192 6.72747C17.8665 6.64636 17.7914 6.58228 17.703 6.543C17.515 6.4595 13.065 4.5 9.5 4.5C5.935 4.5 1.4845 6.4595 1.297 6.543C1.20859 6.58228 1.13347 6.64636 1.08076 6.72747C1.02804 6.80859 0.999988 6.90326 1 7V15C0.999988 15.0967 1.02804 15.1914 1.08076 15.2725C1.13347 15.3536 1.20859 15.4177 1.297 15.457ZM5 15.724V6.274C5.6315 6.0885 6.311 5.915 7 5.778V16.22C6.311 16.083 5.6315 15.9095 5 15.724ZM17 7.331V14.669C15.953 15.1 12.347 16.5 9.5 16.5C8.99806 16.4963 8.49693 16.4588 8 16.388V5.612C8.49693 5.54116 8.99806 5.50375 9.5 5.5C12.347 5.5 15.953 6.9 17 7.331ZM2 7.331C2.3805 7.174 3.1 6.8885 4 6.5895V15.4105C3.1 15.1105 2.3805 14.826 2 14.669V7.331Z" fill="#1F2326"/>
</svg>
