<svg width="32" height="32" viewBox="0 0 32 32" fill="none" xmlns="http://www.w3.org/2000/svg">
<path d="M7.4666 21.0667C5.70179 21.0667 4.2666 22.5018 4.2666 24.2667C4.2666 26.0315 5.70179 27.4667 7.4666 27.4667C9.23141 27.4667 10.6666 26.0315 10.6666 24.2667C10.6666 22.5018 9.23135 21.0667 7.4666 21.0667ZM7.4666 26.4C6.29004 26.4 5.33329 25.4432 5.33329 24.2667C5.33329 23.0901 6.2901 22.1333 7.4666 22.1333C8.6431 22.1333 9.59992 23.0902 9.59992 24.2667C9.59992 25.4432 8.6431 26.4 7.4666 26.4Z" fill="#1F2326"/>
<path d="M25.6004 21.0667C23.8356 21.0667 22.4004 22.5018 22.4004 24.2667C22.4004 26.0315 23.8356 27.4667 25.6004 27.4667C27.3652 27.4667 28.8004 26.0315 28.8004 24.2667C28.8004 22.5018 27.3652 21.0667 25.6004 21.0667ZM25.6004 26.4C24.4238 26.4 23.4671 25.4432 23.4671 24.2667C23.4671 23.0901 24.4239 22.1333 25.6004 22.1333C26.777 22.1333 27.7337 23.0902 27.7337 24.2667C27.7337 25.4432 26.777 26.4 25.6004 26.4Z" fill="#1F2326"/>
<path d="M31.9151 18.1115L27.1151 10.6448C27.017 10.4923 26.8479 10.4 26.6665 10.4H20.7999C20.505 10.4 20.2666 10.639 20.2666 10.9333V24.2667C20.2666 24.5616 20.505 24.8 20.7999 24.8H22.9332V23.7333H21.3332V11.4667H26.3753L30.9332 18.5568V23.7334H28.2665V24.8H31.4665C31.7615 24.8 31.9998 24.5617 31.9998 24.2667V18.4C31.9999 18.2982 31.9706 18.1973 31.9151 18.1115Z" fill="#1F2326"/>
<path d="M23.467 17.3333V13.6H27.7337V12.5333H22.9337C22.6388 12.5333 22.4004 12.7723 22.4004 13.0666V17.8666C22.4004 18.1616 22.6388 18.4 22.9337 18.4H30.9337V17.3333H23.467V17.3333Z" fill="#1F2326"/>
<path d="M20.8 6.66675H0.533312C0.238937 6.66675 0 6.90569 0 7.20006V24.2668C0 24.5617 0.238937 24.8001 0.533312 24.8001H4.8V23.7334H1.06669V7.73337H20.2667V23.7334H10.1333V24.8001H20.8C21.0949 24.8001 21.3333 24.5617 21.3333 24.2668V7.20006C21.3333 6.90569 21.0949 6.66675 20.8 6.66675Z" fill="#1F2326"/>
<path d="M3.7332 21.6H0.533203V22.6667H3.7332V21.6Z" fill="#1F2326"/>
<path d="M20.2669 21.6H11.2002V22.6667H20.2669V21.6Z" fill="#1F2326"/>
<path d="M31.4663 21.6H29.333V22.6667H31.4663V21.6Z" fill="#1F2326"/>
<path d="M20.8005 8.79993H2.13379V9.86661H20.8005V8.79993Z" fill="#1F2326"/>
<path d="M8.00028 23.7333H6.93359V24.8H8.00028V23.7333Z" fill="#1F2326"/>
<path d="M26.1331 23.7333H25.0664V24.8H26.1331V23.7333Z" fill="#1F2326"/>
<path d="M9.60048 4.53333H2.13379V5.60001H9.60048V4.53333Z" fill="#1F2326"/>
<path d="M1.06669 4.53333H0V5.60001H1.06669V4.53333Z" fill="#1F2326"/>
</svg>
