<svg width="122" height="14" viewBox="0 0 122 14" fill="none" xmlns="http://www.w3.org/2000/svg">
<path d="M26.61 11.18C26.026 11.18 25.494 11.084 25.014 10.892C24.534 10.7 24.122 10.42 23.778 10.052C23.434 9.684 23.166 9.232 22.974 8.696C22.79 8.152 22.698 7.532 22.698 6.836C22.698 6.14 22.802 5.524 23.01 4.988C23.226 4.444 23.514 3.988 23.874 3.62C24.234 3.252 24.654 2.972 25.134 2.78C25.614 2.588 26.126 2.492 26.67 2.492C27.014 2.492 27.322 2.516 27.594 2.564C27.874 2.612 28.114 2.668 28.314 2.732C28.522 2.796 28.69 2.86 28.818 2.924C28.946 2.988 29.034 3.036 29.082 3.068L28.746 4.028C28.674 3.98 28.57 3.928 28.434 3.872C28.298 3.816 28.142 3.76 27.966 3.704C27.798 3.648 27.61 3.604 27.402 3.572C27.202 3.532 26.998 3.512 26.79 3.512C26.35 3.512 25.954 3.588 25.602 3.74C25.25 3.892 24.95 4.112 24.702 4.4C24.454 4.688 24.262 5.04 24.126 5.456C23.998 5.864 23.934 6.324 23.934 6.836C23.934 7.332 23.99 7.784 24.102 8.192C24.222 8.6 24.398 8.952 24.63 9.248C24.862 9.536 25.15 9.76 25.494 9.92C25.846 10.08 26.254 10.16 26.718 10.16C27.254 10.16 27.698 10.104 28.05 9.992C28.402 9.88 28.666 9.78 28.842 9.692L29.142 10.652C29.086 10.692 28.986 10.744 28.842 10.808C28.698 10.864 28.518 10.92 28.302 10.976C28.086 11.032 27.834 11.08 27.546 11.12C27.258 11.16 26.946 11.18 26.61 11.18ZM32.6834 7.604C32.9314 7.78 33.1994 8.004 33.4874 8.276C33.7754 8.54 34.0554 8.828 34.3274 9.14C34.6074 9.452 34.8674 9.772 35.1074 10.1C35.3474 10.42 35.5514 10.72 35.7194 11H34.3994C34.2234 10.728 34.0154 10.452 33.7754 10.172C33.5434 9.884 33.2994 9.608 33.0434 9.344C32.7874 9.08 32.5274 8.836 32.2634 8.612C31.9994 8.388 31.7514 8.2 31.5194 8.048V11H30.4034V4.76H31.5194V7.436C31.7114 7.252 31.9314 7.04 32.1794 6.8C32.4274 6.552 32.6754 6.304 32.9234 6.056C33.1794 5.8 33.4154 5.56 33.6314 5.336C33.8474 5.104 34.0234 4.912 34.1594 4.76H35.4554C35.2794 4.952 35.0714 5.172 34.8314 5.42C34.5994 5.66 34.3554 5.908 34.0994 6.164C33.8514 6.42 33.6034 6.676 33.3554 6.932C33.1074 7.18 32.8834 7.404 32.6834 7.604ZM41.1807 7.892C41.1807 7.164 41.0007 6.604 40.6407 6.212C40.2807 5.82 39.8007 5.624 39.2007 5.624C38.8647 5.624 38.6007 5.636 38.4087 5.66C38.2247 5.684 38.0767 5.712 37.9647 5.744V9.68C38.1007 9.792 38.2967 9.9 38.5527 10.004C38.8087 10.108 39.0887 10.16 39.3927 10.16C39.7127 10.16 39.9847 10.104 40.2087 9.992C40.4407 9.872 40.6287 9.712 40.7727 9.512C40.9167 9.304 41.0207 9.064 41.0847 8.792C41.1487 8.512 41.1807 8.212 41.1807 7.892ZM42.3447 7.892C42.3447 8.364 42.2807 8.8 42.1527 9.2C42.0327 9.6 41.8527 9.944 41.6127 10.232C41.3727 10.52 41.0767 10.744 40.7247 10.904C40.3807 11.064 39.9847 11.144 39.5367 11.144C39.1767 11.144 38.8567 11.096 38.5767 11C38.3047 10.904 38.1007 10.812 37.9647 10.724V13.22H36.8487V4.952C37.1127 4.888 37.4407 4.82 37.8327 4.748C38.2327 4.668 38.6927 4.628 39.2127 4.628C39.6927 4.628 40.1247 4.704 40.5087 4.856C40.8927 5.008 41.2207 5.224 41.4927 5.504C41.7647 5.784 41.9727 6.128 42.1167 6.536C42.2687 6.936 42.3447 7.388 42.3447 7.892ZM46.2071 7.916C45.9911 7.916 45.7791 7.924 45.5711 7.94C45.3711 7.948 45.1911 7.972 45.0311 8.012V10.16C45.0791 10.168 45.1471 10.176 45.2351 10.184C45.3311 10.192 45.4311 10.2 45.5351 10.208C45.6471 10.208 45.7591 10.212 45.8711 10.22C45.9831 10.22 46.0831 10.22 46.1711 10.22C46.6591 10.22 47.0351 10.128 47.2991 9.944C47.5631 9.76 47.6951 9.464 47.6951 9.056C47.6951 8.856 47.6511 8.684 47.5631 8.54C47.4831 8.396 47.3711 8.28 47.2271 8.192C47.0911 8.096 46.9351 8.028 46.7591 7.988C46.5831 7.94 46.3991 7.916 46.2071 7.916ZM43.9151 4.76H45.0311V7.148C45.1671 7.116 45.3631 7.084 45.6191 7.052C45.8831 7.02 46.1351 7.004 46.3751 7.004C46.7031 7.004 47.0151 7.044 47.3111 7.124C47.6071 7.196 47.8671 7.316 48.0911 7.484C48.3151 7.644 48.4911 7.856 48.6191 8.12C48.7551 8.376 48.8231 8.684 48.8231 9.044C48.8231 9.42 48.7591 9.74 48.6311 10.004C48.5031 10.268 48.3231 10.484 48.0911 10.652C47.8591 10.82 47.5791 10.94 47.2511 11.012C46.9231 11.092 46.5631 11.132 46.1711 11.132C45.7951 11.132 45.4151 11.108 45.0311 11.06C44.6471 11.02 44.2751 10.956 43.9151 10.868V4.76ZM51.0911 11H49.9751V4.76H51.0911V11ZM57.4128 4.76V5.696H55.3848V11H54.2688V5.696H52.2408V4.76H57.4128ZM60.9275 10.22C61.3995 10.22 61.7715 10.128 62.0435 9.944C62.3155 9.76 62.4515 9.464 62.4515 9.056C62.4515 8.856 62.4115 8.684 62.3315 8.54C62.2515 8.396 62.1395 8.28 61.9955 8.192C61.8595 8.096 61.6995 8.028 61.5155 7.988C61.3315 7.94 61.1355 7.916 60.9275 7.916C60.7115 7.916 60.4875 7.924 60.2555 7.94C60.0315 7.948 59.8395 7.972 59.6795 8.012V10.16C59.7275 10.168 59.7995 10.176 59.8955 10.184C59.9915 10.192 60.0955 10.2 60.2075 10.208C60.3275 10.208 60.4475 10.212 60.5675 10.22C60.6955 10.22 60.8155 10.22 60.9275 10.22ZM58.5635 10.868V4.76H59.6795V7.148C59.7435 7.132 59.8275 7.116 59.9315 7.1C60.0435 7.084 60.1595 7.068 60.2795 7.052C60.4075 7.036 60.5395 7.024 60.6755 7.016C60.8115 7.008 60.9395 7.004 61.0595 7.004C61.4035 7.004 61.7275 7.044 62.0315 7.124C62.3355 7.196 62.5995 7.316 62.8235 7.484C63.0555 7.644 63.2395 7.856 63.3755 8.12C63.5115 8.376 63.5795 8.684 63.5795 9.044C63.5795 9.42 63.5155 9.74 63.3875 10.004C63.2595 10.268 63.0755 10.484 62.8355 10.652C62.5955 10.82 62.3075 10.94 61.9715 11.012C61.6435 11.092 61.2755 11.132 60.8675 11.132C60.4675 11.132 60.0755 11.108 59.6915 11.06C59.3075 11.02 58.9315 10.956 58.5635 10.868ZM73.1887 7.88C73.1887 8.376 73.1167 8.824 72.9727 9.224C72.8287 9.624 72.6247 9.968 72.3607 10.256C72.1047 10.544 71.7967 10.768 71.4367 10.928C71.0767 11.08 70.6847 11.156 70.2607 11.156C69.8367 11.156 69.4447 11.08 69.0847 10.928C68.7247 10.768 68.4127 10.544 68.1487 10.256C67.8927 9.968 67.6927 9.624 67.5487 9.224C67.4047 8.824 67.3327 8.376 67.3327 7.88C67.3327 7.392 67.4047 6.948 67.5487 6.548C67.6927 6.14 67.8927 5.792 68.1487 5.504C68.4127 5.216 68.7247 4.996 69.0847 4.844C69.4447 4.684 69.8367 4.604 70.2607 4.604C70.6847 4.604 71.0767 4.684 71.4367 4.844C71.7967 4.996 72.1047 5.216 72.3607 5.504C72.6247 5.792 72.8287 6.14 72.9727 6.548C73.1167 6.948 73.1887 7.392 73.1887 7.88ZM72.0247 7.88C72.0247 7.176 71.8647 6.62 71.5447 6.212C71.2327 5.796 70.8047 5.588 70.2607 5.588C69.7167 5.588 69.2847 5.796 68.9647 6.212C68.6527 6.62 68.4967 7.176 68.4967 7.88C68.4967 8.584 68.6527 9.144 68.9647 9.56C69.2847 9.968 69.7167 10.172 70.2607 10.172C70.8047 10.172 71.2327 9.968 71.5447 9.56C71.8647 9.144 72.0247 8.584 72.0247 7.88ZM79.7748 11H78.6588V5.696H75.8748V11H74.7588V4.76H79.7748V11ZM86.9403 4.76V11H85.8603V6.248C85.6203 6.552 85.3563 6.908 85.0683 7.316C84.7803 7.724 84.4923 8.148 84.2043 8.588C83.9163 9.02 83.6403 9.448 83.3763 9.872C83.1123 10.296 82.8843 10.672 82.6923 11H81.6963V4.76H82.7763V9.248C82.9843 8.904 83.2203 8.528 83.4843 8.12C83.7483 7.704 84.0203 7.296 84.3003 6.896C84.5883 6.488 84.8723 6.1 85.1523 5.732C85.4403 5.356 85.7083 5.032 85.9563 4.76H86.9403ZM91.5685 11.144C91.0645 11.144 90.6205 11.064 90.2365 10.904C89.8605 10.744 89.5405 10.52 89.2765 10.232C89.0205 9.944 88.8285 9.604 88.7005 9.212C88.5725 8.812 88.5085 8.372 88.5085 7.892C88.5085 7.412 88.5765 6.972 88.7125 6.572C88.8565 6.172 89.0565 5.828 89.3125 5.54C89.5685 5.244 89.8805 5.016 90.2485 4.856C90.6245 4.688 91.0405 4.604 91.4965 4.604C91.7765 4.604 92.0565 4.628 92.3365 4.676C92.6165 4.724 92.8845 4.8 93.1405 4.904L92.8885 5.852C92.7205 5.772 92.5245 5.708 92.3005 5.66C92.0845 5.612 91.8525 5.588 91.6045 5.588C90.9805 5.588 90.5005 5.784 90.1645 6.176C89.8365 6.568 89.6725 7.14 89.6725 7.892C89.6725 8.228 89.7085 8.536 89.7805 8.816C89.8605 9.096 89.9805 9.336 90.1405 9.536C90.3085 9.736 90.5205 9.892 90.7765 10.004C91.0325 10.108 91.3445 10.16 91.7125 10.16C92.0085 10.16 92.2765 10.132 92.5165 10.076C92.7565 10.02 92.9445 9.96 93.0805 9.896L93.2365 10.832C93.1725 10.872 93.0805 10.912 92.9605 10.952C92.8405 10.984 92.7045 11.012 92.5525 11.036C92.4005 11.068 92.2365 11.092 92.0605 11.108C91.8925 11.132 91.7285 11.144 91.5685 11.144ZM96.5466 10.196C96.8106 10.196 97.0426 10.192 97.2426 10.184C97.4506 10.168 97.6226 10.144 97.7586 10.112V8.252C97.6786 8.212 97.5466 8.18 97.3626 8.156C97.1866 8.124 96.9706 8.108 96.7146 8.108C96.5466 8.108 96.3666 8.12 96.1746 8.144C95.9906 8.168 95.8186 8.22 95.6586 8.3C95.5066 8.372 95.3786 8.476 95.2746 8.612C95.1706 8.74 95.1186 8.912 95.1186 9.128C95.1186 9.528 95.2466 9.808 95.5026 9.968C95.7586 10.12 96.1066 10.196 96.5466 10.196ZM96.4506 4.604C96.8986 4.604 97.2746 4.664 97.5786 4.784C97.8906 4.896 98.1386 5.06 98.3226 5.276C98.5146 5.484 98.6506 5.736 98.7306 6.032C98.8106 6.32 98.8506 6.64 98.8506 6.992V10.892C98.7546 10.908 98.6186 10.932 98.4426 10.964C98.2746 10.988 98.0826 11.012 97.8666 11.036C97.6506 11.06 97.4146 11.08 97.1586 11.096C96.9106 11.12 96.6626 11.132 96.4146 11.132C96.0626 11.132 95.7386 11.096 95.4426 11.024C95.1466 10.952 94.8906 10.84 94.6746 10.688C94.4586 10.528 94.2906 10.32 94.1706 10.064C94.0506 9.808 93.9906 9.5 93.9906 9.14C93.9906 8.796 94.0586 8.5 94.1946 8.252C94.3386 8.004 94.5306 7.804 94.7706 7.652C95.0106 7.5 95.2906 7.388 95.6106 7.316C95.9306 7.244 96.2666 7.208 96.6186 7.208C96.7306 7.208 96.8466 7.216 96.9666 7.232C97.0866 7.24 97.1986 7.256 97.3026 7.28C97.4146 7.296 97.5106 7.312 97.5906 7.328C97.6706 7.344 97.7266 7.356 97.7586 7.364V7.052C97.7586 6.868 97.7386 6.688 97.6986 6.512C97.6586 6.328 97.5866 6.168 97.4826 6.032C97.3786 5.888 97.2346 5.776 97.0506 5.696C96.8746 5.608 96.6426 5.564 96.3546 5.564C95.9866 5.564 95.6626 5.592 95.3826 5.648C95.1106 5.696 94.9066 5.748 94.7706 5.804L94.6386 4.88C94.7826 4.816 95.0226 4.756 95.3586 4.7C95.6946 4.636 96.0586 4.604 96.4506 4.604ZM105.816 11H104.7V8.24H101.82V11H100.704V4.76H101.82V7.304H104.7V4.76H105.816V11ZM112.979 4.76V11H111.899V6.248C111.659 6.552 111.395 6.908 111.107 7.316C110.819 7.724 110.531 8.148 110.243 8.588C109.955 9.02 109.679 9.448 109.415 9.872C109.151 10.296 108.923 10.672 108.731 11H107.735V4.76H108.815V9.248C109.023 8.904 109.259 8.528 109.523 8.12C109.787 7.704 110.059 7.296 110.339 6.896C110.627 6.488 110.911 6.1 111.191 5.732C111.479 5.356 111.747 5.032 111.995 4.76H112.979ZM114.548 7.892C114.548 7.34 114.628 6.86 114.788 6.452C114.948 6.036 115.16 5.692 115.424 5.42C115.688 5.148 115.992 4.944 116.336 4.808C116.68 4.672 117.032 4.604 117.392 4.604C118.232 4.604 118.876 4.868 119.324 5.396C119.772 5.916 119.996 6.712 119.996 7.784C119.996 7.832 119.996 7.896 119.996 7.976C119.996 8.048 119.992 8.116 119.984 8.18H115.712C115.76 8.828 115.948 9.32 116.276 9.656C116.604 9.992 117.116 10.16 117.812 10.16C118.204 10.16 118.532 10.128 118.796 10.064C119.068 9.992 119.272 9.924 119.408 9.86L119.564 10.796C119.428 10.868 119.188 10.944 118.844 11.024C118.508 11.104 118.124 11.144 117.692 11.144C117.148 11.144 116.676 11.064 116.276 10.904C115.884 10.736 115.56 10.508 115.304 10.22C115.048 9.932 114.856 9.592 114.728 9.2C114.608 8.8 114.548 8.364 114.548 7.892ZM118.832 7.28C118.84 6.776 118.712 6.364 118.448 6.044C118.192 5.716 117.836 5.552 117.38 5.552C117.124 5.552 116.896 5.604 116.696 5.708C116.504 5.804 116.34 5.932 116.204 6.092C116.068 6.252 115.96 6.436 115.88 6.644C115.808 6.852 115.76 7.064 115.736 7.28H118.832Z" fill="#1F2326"/>
<path d="M12.6442 10.3862L13.2305 9.79998L7.00047 3.56998L0.770468 9.79998L1.35672 10.3862L7.00047 4.74248L12.6442 10.3862Z" fill="#1F2326"/>
</svg>
