<svg width="131" height="14" viewBox="0 0 131 14" fill="none" xmlns="http://www.w3.org/2000/svg">
<path d="M29.356 2.684V11H28.192V3.68H24.196V11H23.032V2.684H29.356ZM36.8586 7.88C36.8586 8.376 36.7866 8.824 36.6426 9.224C36.4986 9.624 36.2946 9.968 36.0306 10.256C35.7746 10.544 35.4666 10.768 35.1066 10.928C34.7466 11.08 34.3546 11.156 33.9306 11.156C33.5066 11.156 33.1146 11.08 32.7546 10.928C32.3946 10.768 32.0826 10.544 31.8186 10.256C31.5626 9.968 31.3626 9.624 31.2186 9.224C31.0746 8.824 31.0026 8.376 31.0026 7.88C31.0026 7.392 31.0746 6.948 31.2186 6.548C31.3626 6.14 31.5626 5.792 31.8186 5.504C32.0826 5.216 32.3946 4.996 32.7546 4.844C33.1146 4.684 33.5066 4.604 33.9306 4.604C34.3546 4.604 34.7466 4.684 35.1066 4.844C35.4666 4.996 35.7746 5.216 36.0306 5.504C36.2946 5.792 36.4986 6.14 36.6426 6.548C36.7866 6.948 36.8586 7.392 36.8586 7.88ZM35.6946 7.88C35.6946 7.176 35.5346 6.62 35.2146 6.212C34.9026 5.796 34.4746 5.588 33.9306 5.588C33.3866 5.588 32.9546 5.796 32.6346 6.212C32.3226 6.62 32.1666 7.176 32.1666 7.88C32.1666 8.584 32.3226 9.144 32.6346 9.56C32.9546 9.968 33.3866 10.172 33.9306 10.172C34.4746 10.172 34.9026 9.968 35.2146 9.56C35.5346 9.144 35.6946 8.584 35.6946 7.88ZM40.7088 7.604C40.9568 7.78 41.2248 8.004 41.5128 8.276C41.8008 8.54 42.0808 8.828 42.3528 9.14C42.6328 9.452 42.8928 9.772 43.1328 10.1C43.3728 10.42 43.5768 10.72 43.7448 11H42.4248C42.2488 10.728 42.0408 10.452 41.8008 10.172C41.5688 9.884 41.3248 9.608 41.0688 9.344C40.8128 9.08 40.5528 8.836 40.2888 8.612C40.0248 8.388 39.7768 8.2 39.5448 8.048V11H38.4288V4.76H39.5448V7.436C39.7368 7.252 39.9568 7.04 40.2048 6.8C40.4528 6.552 40.7008 6.304 40.9488 6.056C41.2048 5.8 41.4408 5.56 41.6568 5.336C41.8728 5.104 42.0488 4.912 42.1848 4.76H43.4808C43.3048 4.952 43.0968 5.172 42.8568 5.42C42.6248 5.66 42.3808 5.908 42.1248 6.164C41.8768 6.42 41.6288 6.676 41.3808 6.932C41.1328 7.18 40.9088 7.404 40.7088 7.604ZM46.9861 10.196C47.2501 10.196 47.4821 10.192 47.6821 10.184C47.8901 10.168 48.0621 10.144 48.1981 10.112V8.252C48.1181 8.212 47.9861 8.18 47.8021 8.156C47.6261 8.124 47.4101 8.108 47.1541 8.108C46.9861 8.108 46.8061 8.12 46.6141 8.144C46.4301 8.168 46.2581 8.22 46.0981 8.3C45.9461 8.372 45.8181 8.476 45.7141 8.612C45.6101 8.74 45.5581 8.912 45.5581 9.128C45.5581 9.528 45.6861 9.808 45.9421 9.968C46.1981 10.12 46.5461 10.196 46.9861 10.196ZM46.8901 4.604C47.3381 4.604 47.7141 4.664 48.0181 4.784C48.3301 4.896 48.5781 5.06 48.7621 5.276C48.9541 5.484 49.0901 5.736 49.1701 6.032C49.2501 6.32 49.2901 6.64 49.2901 6.992V10.892C49.1941 10.908 49.0581 10.932 48.8821 10.964C48.7141 10.988 48.5221 11.012 48.3061 11.036C48.0901 11.06 47.8541 11.08 47.5981 11.096C47.3501 11.12 47.1021 11.132 46.8541 11.132C46.5021 11.132 46.1781 11.096 45.8821 11.024C45.5861 10.952 45.3301 10.84 45.1141 10.688C44.8981 10.528 44.7301 10.32 44.6101 10.064C44.4901 9.808 44.4301 9.5 44.4301 9.14C44.4301 8.796 44.4981 8.5 44.6341 8.252C44.7781 8.004 44.9701 7.804 45.2101 7.652C45.4501 7.5 45.7301 7.388 46.0501 7.316C46.3701 7.244 46.7061 7.208 47.0581 7.208C47.1701 7.208 47.2861 7.216 47.4061 7.232C47.5261 7.24 47.6381 7.256 47.7421 7.28C47.8541 7.296 47.9501 7.312 48.0301 7.328C48.1101 7.344 48.1661 7.356 48.1981 7.364V7.052C48.1981 6.868 48.1781 6.688 48.1381 6.512C48.0981 6.328 48.0261 6.168 47.9221 6.032C47.8181 5.888 47.6741 5.776 47.4901 5.696C47.3141 5.608 47.0821 5.564 46.7941 5.564C46.4261 5.564 46.1021 5.592 45.8221 5.648C45.5501 5.696 45.3461 5.748 45.2101 5.804L45.0781 4.88C45.2221 4.816 45.4621 4.756 45.7981 4.7C46.1341 4.636 46.4981 4.604 46.8901 4.604ZM52.7276 4.604C53.0876 4.604 53.4236 4.64 53.7356 4.712C54.0476 4.784 54.3156 4.892 54.5396 5.036C54.7636 5.18 54.9396 5.36 55.0676 5.576C55.1956 5.792 55.2596 6.044 55.2596 6.332C55.2596 6.516 55.2276 6.684 55.1636 6.836C55.0996 6.988 55.0196 7.124 54.9236 7.244C54.8276 7.364 54.7196 7.468 54.5996 7.556C54.4876 7.636 54.3796 7.692 54.2756 7.724C54.6436 7.836 54.9316 8.036 55.1396 8.324C55.3556 8.604 55.4636 8.96 55.4636 9.392C55.4636 9.984 55.2236 10.424 54.7436 10.712C54.2636 11 53.6116 11.144 52.7876 11.144C52.2836 11.144 51.8476 11.104 51.4796 11.024C51.1196 10.944 50.8636 10.868 50.7116 10.796L50.9036 9.848C51.0316 9.896 51.2596 9.964 51.5876 10.052C51.9236 10.132 52.3236 10.172 52.7876 10.172C53.2916 10.172 53.6756 10.096 53.9396 9.944C54.2036 9.784 54.3356 9.548 54.3356 9.236C54.3356 9.012 54.2836 8.832 54.1796 8.696C54.0836 8.552 53.9596 8.444 53.8076 8.372C53.6556 8.3 53.4916 8.252 53.3156 8.228C53.1396 8.204 52.9756 8.192 52.8236 8.192H51.7796V7.304H52.7876C52.9316 7.304 53.0796 7.296 53.2316 7.28C53.3916 7.256 53.5356 7.212 53.6636 7.148C53.7996 7.084 53.9116 6.996 53.9996 6.884C54.0876 6.764 54.1316 6.608 54.1316 6.416C54.1316 6.264 54.0916 6.136 54.0116 6.032C53.9396 5.92 53.8396 5.828 53.7116 5.756C53.5836 5.684 53.4316 5.632 53.2556 5.6C53.0876 5.56 52.9116 5.54 52.7276 5.54C52.5836 5.54 52.4276 5.552 52.2596 5.576C52.0916 5.6 51.9276 5.632 51.7676 5.672C51.6076 5.704 51.4636 5.74 51.3356 5.78C51.2076 5.82 51.1156 5.856 51.0596 5.888L50.8556 4.928C50.9196 4.904 51.0196 4.872 51.1556 4.832C51.2916 4.792 51.4436 4.756 51.6116 4.724C51.7876 4.692 51.9716 4.664 52.1636 4.64C52.3556 4.616 52.5436 4.604 52.7276 4.604ZM59.1267 10.196C59.3907 10.196 59.6227 10.192 59.8227 10.184C60.0307 10.168 60.2027 10.144 60.3387 10.112V8.252C60.2587 8.212 60.1267 8.18 59.9427 8.156C59.7667 8.124 59.5507 8.108 59.2947 8.108C59.1267 8.108 58.9467 8.12 58.7547 8.144C58.5707 8.168 58.3987 8.22 58.2387 8.3C58.0867 8.372 57.9587 8.476 57.8547 8.612C57.7507 8.74 57.6987 8.912 57.6987 9.128C57.6987 9.528 57.8267 9.808 58.0827 9.968C58.3387 10.12 58.6867 10.196 59.1267 10.196ZM59.0307 4.604C59.4787 4.604 59.8547 4.664 60.1587 4.784C60.4707 4.896 60.7187 5.06 60.9027 5.276C61.0947 5.484 61.2307 5.736 61.3107 6.032C61.3907 6.32 61.4307 6.64 61.4307 6.992V10.892C61.3347 10.908 61.1987 10.932 61.0227 10.964C60.8547 10.988 60.6627 11.012 60.4467 11.036C60.2307 11.06 59.9947 11.08 59.7387 11.096C59.4907 11.12 59.2427 11.132 58.9947 11.132C58.6427 11.132 58.3187 11.096 58.0227 11.024C57.7267 10.952 57.4707 10.84 57.2547 10.688C57.0387 10.528 56.8707 10.32 56.7507 10.064C56.6307 9.808 56.5707 9.5 56.5707 9.14C56.5707 8.796 56.6387 8.5 56.7747 8.252C56.9187 8.004 57.1107 7.804 57.3507 7.652C57.5907 7.5 57.8707 7.388 58.1907 7.316C58.5107 7.244 58.8467 7.208 59.1987 7.208C59.3107 7.208 59.4267 7.216 59.5467 7.232C59.6667 7.24 59.7787 7.256 59.8827 7.28C59.9947 7.296 60.0907 7.312 60.1707 7.328C60.2507 7.344 60.3067 7.356 60.3387 7.364V7.052C60.3387 6.868 60.3187 6.688 60.2787 6.512C60.2387 6.328 60.1667 6.168 60.0627 6.032C59.9587 5.888 59.8147 5.776 59.6307 5.696C59.4547 5.608 59.2227 5.564 58.9347 5.564C58.5667 5.564 58.2427 5.592 57.9627 5.648C57.6907 5.696 57.4867 5.748 57.3507 5.804L57.2187 4.88C57.3627 4.816 57.6027 4.756 57.9387 4.7C58.2747 4.636 58.6387 4.604 59.0307 4.604ZM67.6882 4.76V5.696H65.6602V11H64.5442V5.696H62.5162V4.76H67.6882ZM71.2029 10.22C71.6749 10.22 72.0469 10.128 72.3189 9.944C72.5909 9.76 72.7269 9.464 72.7269 9.056C72.7269 8.856 72.6869 8.684 72.6069 8.54C72.5269 8.396 72.4149 8.28 72.2709 8.192C72.1349 8.096 71.9749 8.028 71.7909 7.988C71.6069 7.94 71.4109 7.916 71.2029 7.916C70.9869 7.916 70.7629 7.924 70.5309 7.94C70.3069 7.948 70.1149 7.972 69.9549 8.012V10.16C70.0029 10.168 70.0749 10.176 70.1709 10.184C70.2669 10.192 70.3709 10.2 70.4829 10.208C70.6029 10.208 70.7229 10.212 70.8429 10.22C70.9709 10.22 71.0909 10.22 71.2029 10.22ZM68.8389 10.868V4.76H69.9549V7.148C70.0189 7.132 70.1029 7.116 70.2069 7.1C70.3189 7.084 70.4349 7.068 70.5549 7.052C70.6829 7.036 70.8149 7.024 70.9509 7.016C71.0869 7.008 71.2149 7.004 71.3349 7.004C71.6789 7.004 72.0029 7.044 72.3069 7.124C72.6109 7.196 72.8749 7.316 73.0989 7.484C73.3309 7.644 73.5149 7.856 73.6509 8.12C73.7869 8.376 73.8549 8.684 73.8549 9.044C73.8549 9.42 73.7909 9.74 73.6629 10.004C73.5349 10.268 73.3509 10.484 73.1109 10.652C72.8709 10.82 72.5829 10.94 72.2469 11.012C71.9189 11.092 71.5509 11.132 71.1429 11.132C70.7429 11.132 70.3509 11.108 69.9669 11.06C69.5829 11.02 69.2069 10.956 68.8389 10.868ZM83.4641 7.88C83.4641 8.376 83.3921 8.824 83.2481 9.224C83.1041 9.624 82.9001 9.968 82.6361 10.256C82.3801 10.544 82.0721 10.768 81.7121 10.928C81.3521 11.08 80.9601 11.156 80.5361 11.156C80.1121 11.156 79.7201 11.08 79.3601 10.928C79.0001 10.768 78.6881 10.544 78.4241 10.256C78.1681 9.968 77.9681 9.624 77.8241 9.224C77.6801 8.824 77.6081 8.376 77.6081 7.88C77.6081 7.392 77.6801 6.948 77.8241 6.548C77.9681 6.14 78.1681 5.792 78.4241 5.504C78.6881 5.216 79.0001 4.996 79.3601 4.844C79.7201 4.684 80.1121 4.604 80.5361 4.604C80.9601 4.604 81.3521 4.684 81.7121 4.844C82.0721 4.996 82.3801 5.216 82.6361 5.504C82.9001 5.792 83.1041 6.14 83.2481 6.548C83.3921 6.948 83.4641 7.392 83.4641 7.88ZM82.3001 7.88C82.3001 7.176 82.1401 6.62 81.8201 6.212C81.5081 5.796 81.0801 5.588 80.5361 5.588C79.9921 5.588 79.5601 5.796 79.2401 6.212C78.9281 6.62 78.7721 7.176 78.7721 7.88C78.7721 8.584 78.9281 9.144 79.2401 9.56C79.5601 9.968 79.9921 10.172 80.5361 10.172C81.0801 10.172 81.5081 9.968 81.8201 9.56C82.1401 9.144 82.3001 8.584 82.3001 7.88ZM90.0502 11H88.9342V5.696H86.1502V11H85.0342V4.76H90.0502V11ZM97.2157 4.76V11H96.1357V6.248C95.8957 6.552 95.6317 6.908 95.3437 7.316C95.0557 7.724 94.7677 8.148 94.4797 8.588C94.1917 9.02 93.9157 9.448 93.6517 9.872C93.3877 10.296 93.1597 10.672 92.9677 11H91.9717V4.76H93.0517V9.248C93.2597 8.904 93.4957 8.528 93.7597 8.12C94.0237 7.704 94.2957 7.296 94.5757 6.896C94.8637 6.488 95.1477 6.1 95.4277 5.732C95.7157 5.356 95.9837 5.032 96.2317 4.76H97.2157ZM101.844 11.144C101.34 11.144 100.896 11.064 100.512 10.904C100.136 10.744 99.8159 10.52 99.5519 10.232C99.2959 9.944 99.1039 9.604 98.9759 9.212C98.8479 8.812 98.7839 8.372 98.7839 7.892C98.7839 7.412 98.8519 6.972 98.9879 6.572C99.1319 6.172 99.3319 5.828 99.5879 5.54C99.8439 5.244 100.156 5.016 100.524 4.856C100.9 4.688 101.316 4.604 101.772 4.604C102.052 4.604 102.332 4.628 102.612 4.676C102.892 4.724 103.16 4.8 103.416 4.904L103.164 5.852C102.996 5.772 102.8 5.708 102.576 5.66C102.36 5.612 102.128 5.588 101.88 5.588C101.256 5.588 100.776 5.784 100.44 6.176C100.112 6.568 99.9479 7.14 99.9479 7.892C99.9479 8.228 99.9839 8.536 100.056 8.816C100.136 9.096 100.256 9.336 100.416 9.536C100.584 9.736 100.796 9.892 101.052 10.004C101.308 10.108 101.62 10.16 101.988 10.16C102.284 10.16 102.552 10.132 102.792 10.076C103.032 10.02 103.22 9.96 103.356 9.896L103.512 10.832C103.448 10.872 103.356 10.912 103.236 10.952C103.116 10.984 102.98 11.012 102.828 11.036C102.676 11.068 102.512 11.092 102.336 11.108C102.168 11.132 102.004 11.144 101.844 11.144ZM106.822 10.196C107.086 10.196 107.318 10.192 107.518 10.184C107.726 10.168 107.898 10.144 108.034 10.112V8.252C107.954 8.212 107.822 8.18 107.638 8.156C107.462 8.124 107.246 8.108 106.99 8.108C106.822 8.108 106.642 8.12 106.45 8.144C106.266 8.168 106.094 8.22 105.934 8.3C105.782 8.372 105.654 8.476 105.55 8.612C105.446 8.74 105.394 8.912 105.394 9.128C105.394 9.528 105.522 9.808 105.778 9.968C106.034 10.12 106.382 10.196 106.822 10.196ZM106.726 4.604C107.174 4.604 107.55 4.664 107.854 4.784C108.166 4.896 108.414 5.06 108.598 5.276C108.79 5.484 108.926 5.736 109.006 6.032C109.086 6.32 109.126 6.64 109.126 6.992V10.892C109.03 10.908 108.894 10.932 108.718 10.964C108.55 10.988 108.358 11.012 108.142 11.036C107.926 11.06 107.69 11.08 107.434 11.096C107.186 11.12 106.938 11.132 106.69 11.132C106.338 11.132 106.014 11.096 105.718 11.024C105.422 10.952 105.166 10.84 104.95 10.688C104.734 10.528 104.566 10.32 104.446 10.064C104.326 9.808 104.266 9.5 104.266 9.14C104.266 8.796 104.334 8.5 104.47 8.252C104.614 8.004 104.806 7.804 105.046 7.652C105.286 7.5 105.566 7.388 105.886 7.316C106.206 7.244 106.542 7.208 106.894 7.208C107.006 7.208 107.122 7.216 107.242 7.232C107.362 7.24 107.474 7.256 107.578 7.28C107.69 7.296 107.786 7.312 107.866 7.328C107.946 7.344 108.002 7.356 108.034 7.364V7.052C108.034 6.868 108.014 6.688 107.974 6.512C107.934 6.328 107.862 6.168 107.758 6.032C107.654 5.888 107.51 5.776 107.326 5.696C107.15 5.608 106.918 5.564 106.63 5.564C106.262 5.564 105.938 5.592 105.658 5.648C105.386 5.696 105.182 5.748 105.046 5.804L104.914 4.88C105.058 4.816 105.298 4.756 105.634 4.7C105.97 4.636 106.334 4.604 106.726 4.604ZM116.092 11H114.976V8.24H112.096V11H110.98V4.76H112.096V7.304H114.976V4.76H116.092V11ZM123.255 4.76V11H122.175V6.248C121.935 6.552 121.671 6.908 121.383 7.316C121.095 7.724 120.807 8.148 120.519 8.588C120.231 9.02 119.955 9.448 119.691 9.872C119.427 10.296 119.199 10.672 119.007 11H118.011V4.76H119.091V9.248C119.299 8.904 119.535 8.528 119.799 8.12C120.063 7.704 120.335 7.296 120.615 6.896C120.903 6.488 121.187 6.1 121.467 5.732C121.755 5.356 122.023 5.032 122.271 4.76H123.255ZM124.823 7.892C124.823 7.34 124.903 6.86 125.063 6.452C125.223 6.036 125.435 5.692 125.699 5.42C125.963 5.148 126.267 4.944 126.611 4.808C126.955 4.672 127.307 4.604 127.667 4.604C128.507 4.604 129.151 4.868 129.599 5.396C130.047 5.916 130.271 6.712 130.271 7.784C130.271 7.832 130.271 7.896 130.271 7.976C130.271 8.048 130.267 8.116 130.259 8.18H125.987C126.035 8.828 126.223 9.32 126.551 9.656C126.879 9.992 127.391 10.16 128.087 10.16C128.479 10.16 128.807 10.128 129.071 10.064C129.343 9.992 129.547 9.924 129.683 9.86L129.839 10.796C129.703 10.868 129.463 10.944 129.119 11.024C128.783 11.104 128.399 11.144 127.967 11.144C127.423 11.144 126.951 11.064 126.551 10.904C126.159 10.736 125.835 10.508 125.579 10.22C125.323 9.932 125.131 9.592 125.003 9.2C124.883 8.8 124.823 8.364 124.823 7.892ZM129.107 7.28C129.115 6.776 128.987 6.364 128.723 6.044C128.467 5.716 128.111 5.552 127.655 5.552C127.399 5.552 127.171 5.604 126.971 5.708C126.779 5.804 126.615 5.932 126.479 6.092C126.343 6.252 126.235 6.436 126.155 6.644C126.083 6.852 126.035 7.064 126.011 7.28H129.107Z" fill="#1F2326"/>
<path d="M1.35578 3.61377L0.769531 4.20002L6.99953 10.43L13.2295 4.20002L12.6433 3.61377L6.99953 9.25752L1.35578 3.61377Z" fill="#1F2326"/>
</svg>
