<svg width="220" height="36" viewBox="0 0 220 36" fill="none" xmlns="http://www.w3.org/2000/svg">
<path fill-rule="evenodd" clip-rule="evenodd" d="M14.4321 18.11C15.2631 18.11 16.1145 18.11 16.9658 18.11C18.3037 18.11 19.6368 17.5022 20.978 16.3026C22.3309 15.0927 23.3551 13.6226 24.059 11.8747C24.7603 10.1331 24.9245 8.65394 24.5536 7.42932C24.1853 6.21323 23.3456 5.59773 22.0078 5.59773C21.1566 5.59773 20.3052 5.59773 19.4742 5.59773C19.2309 5.59773 18.9949 5.69238 18.7397 5.86082C18.4704 6.03865 18.287 6.27984 18.1588 6.5983C17.453 8.34997 16.7463 10.1018 16.0408 11.8539C15.3341 13.6087 14.6279 15.3609 13.9219 17.1128C13.795 17.4277 13.7847 17.6676 13.9097 17.8467C14.029 18.0176 14.1888 18.11 14.4321 18.11ZM0.077084 33.6653C1.90234 29.1333 3.72974 24.5975 5.55738 20.0625C7.38359 15.5304 9.21291 10.9917 11.0407 6.45632C11.706 4.80502 11.8876 3.49003 11.6386 2.50592C11.5591 2.19181 11.617 1.91147 11.7605 1.6992C11.9173 1.46741 12.1172 1.36687 12.3402 1.36687C16.6577 1.36687 20.9751 1.36725 25.3128 1.36725C28.0897 1.36725 30.1057 2.40495 31.3568 4.4798C32.6088 6.55601 32.6403 9.03938 31.4786 11.9233C30.328 14.7792 28.303 17.2368 25.3857 19.2974C22.4656 21.3599 19.6191 22.3891 16.8422 22.3891C15.4637 22.3891 14.0854 22.3891 12.7072 22.3891C12.4639 22.3891 12.2253 22.4944 11.9629 22.6798C11.6865 22.8751 11.5073 23.1058 11.3916 23.3931C10.7008 25.1066 10.0099 26.8205 9.32079 28.5308C8.63176 30.2411 7.94137 31.955 7.25264 33.6652C7.15097 33.918 6.95803 34.1473 6.69151 34.3542C6.42751 34.5592 6.16202 34.6589 5.89855 34.6589C4.11484 34.6589 2.33113 34.6589 0.567735 34.6589C0.344793 34.6589 0.190285 34.5549 0.0835365 34.3542C-0.0289504 34.1428 -0.0245846 33.9178 0.077084 33.6653ZM36.8711 26.8618C36.8975 23.4621 36.9365 20.0588 36.9894 16.6593C37.0422 13.2596 37.1371 9.85683 37.1477 6.45662C37.1537 4.58329 36.8633 3.29919 36.4292 2.55847C36.2501 2.25252 36.2624 1.96298 36.3989 1.72413C36.5355 1.48535 36.7655 1.36736 37.0693 1.36736C39.2381 1.36736 41.4073 1.36755 43.5963 1.36755C44.0624 1.36755 44.3562 1.43648 44.4926 1.55808C44.6397 1.68932 44.7016 1.93897 44.6927 2.31967C44.6313 4.88137 44.5742 7.44375 44.5161 10.0019C44.458 12.5603 44.3648 15.1217 44.3409 17.6805C44.3391 17.9046 44.4501 18.0129 44.592 18.0129C44.7339 18.0129 44.8985 17.9007 45.0707 17.6805C47.0729 15.1208 49.0794 12.5603 51.0835 10.0019C53.0874 7.44375 55.118 4.88574 57.1384 2.32355C57.4383 1.94315 57.7017 1.68841 57.9315 1.55846C58.148 1.43593 58.4743 1.36809 58.8999 1.36809C59.8933 1.36809 60.8864 1.36809 61.8999 1.36809C62.2039 1.36809 62.3981 1.45896 62.4545 1.65557C62.5083 1.84328 62.4103 2.06758 62.2058 2.32374C58.0307 7.55112 53.8522 12.7882 49.6985 18.0164C45.5432 23.2466 41.3738 28.471 37.2337 33.706C36.9111 34.1139 36.6559 34.3772 36.4104 34.4918C36.1817 34.5987 35.8571 34.6582 35.4111 34.6582C34.4181 34.6582 33.4248 34.6582 32.4316 34.6582C31.8236 34.6582 31.7695 34.3477 32.2676 33.7097C33.5285 32.0943 34.7819 30.472 36.0663 28.8594C36.4224 28.4124 36.6424 28.0838 36.7315 27.8623C36.8207 27.6408 36.8677 27.3081 36.8711 26.8618ZM65.6094 1.37173C74.0415 1.37173 82.4941 1.37228 90.9466 1.37234C91.2302 1.37234 91.4332 1.47564 91.5319 1.6803C91.6319 1.88735 91.6329 2.13411 91.5186 2.4177C89.4192 7.62771 87.3204 12.8341 85.2217 18.0406C83.1232 23.2469 81.0245 28.4536 78.9265 33.66C78.8246 33.9127 78.6315 34.142 78.365 34.3489C78.1009 34.5537 77.8152 34.657 77.5314 34.657C75.8085 34.657 74.0856 34.6572 72.383 34.6572C72.0993 34.6572 71.8966 34.5538 71.7977 34.349C71.6977 34.1422 71.6896 33.9128 71.7914 33.6602C73.6077 29.153 75.4258 24.6421 77.2425 20.1351C79.0593 15.6277 80.8791 11.1134 82.6971 6.60284C82.8128 6.31556 82.8092 6.07021 82.7104 5.86543C82.6106 5.65856 82.4292 5.55746 82.2064 5.55746C79.0241 5.55746 75.8617 5.55729 72.6999 5.55729C72.0918 5.55729 71.6482 5.90356 71.3665 6.60267C69.5485 11.1134 67.7286 15.6279 65.9118 20.1351C64.0951 24.6423 62.2767 29.1566 60.4607 33.6605C60.3588 33.913 60.1826 34.1375 59.8994 34.3494C59.6319 34.5495 59.3496 34.6576 59.0658 34.6576C57.3227 34.6576 55.5795 34.6576 53.8363 34.6576C53.6133 34.6576 53.4309 34.5544 53.3321 34.3496C53.2321 34.1425 53.224 33.9132 53.3258 33.6607C55.1515 29.1324 56.9794 24.5937 58.8061 20.0624C60.6326 15.5308 62.4608 10.9954 64.2887 6.45706C64.9539 4.80575 65.1516 3.49606 64.8871 2.51047C64.8033 2.19778 64.8659 1.9305 65.0296 1.70399C65.1861 1.48731 65.3866 1.37173 65.6094 1.37173ZM89.6151 26.9545C90.839 25.3918 92.098 23.4098 93.3586 20.9866C94.6189 18.5636 95.8815 15.695 97.1824 12.4051C97.9674 10.4195 98.7783 8.4448 99.5779 6.46135C100.217 4.87578 100.379 3.56106 100.116 2.51145C100.037 2.1974 100.094 1.93148 100.258 1.70497C100.415 1.48834 100.615 1.37264 100.838 1.37264C107.588 1.37264 114.338 1.37326 121.108 1.37326C121.371 1.37326 121.546 1.4808 121.653 1.6814C121.765 1.89281 121.754 2.13486 121.639 2.41864C119.539 7.62815 117.441 12.8347 115.342 18.0409C113.244 23.2468 111.145 28.4534 109.047 33.6595C108.945 33.912 108.769 34.1365 108.486 34.3484C108.218 34.5485 107.956 34.6566 107.693 34.6566C105.909 34.6566 104.145 34.6566 102.382 34.6566C102.159 34.6566 101.976 34.5532 101.878 34.3484C101.778 34.1415 101.77 33.9122 101.872 33.6595C103.683 29.1664 105.494 24.6733 107.305 20.18C109.116 15.6871 110.927 11.1935 112.739 6.69706C112.866 6.3821 112.882 6.12422 112.771 5.91471C112.663 5.71202 112.491 5.60326 112.228 5.60326C109.896 5.60326 107.586 5.60288 105.275 5.60288C104.748 5.60288 104.389 5.89036 104.159 6.46148C103.277 8.64922 102.395 10.837 101.515 13.0212C100.006 16.7631 98.4432 20.0382 96.8875 22.8421C95.3319 25.646 93.7289 27.9948 92.0946 29.8555C90.8072 31.3213 89.3396 32.5299 87.7094 33.4937C86.0666 34.465 84.4653 35.0166 82.9131 35.1347C82.3741 35.1758 82.2042 34.9318 82.3289 34.4216C82.6103 33.2701 82.8687 32.1072 83.1606 30.9494C83.2413 30.6291 83.409 30.386 83.6808 30.2122C83.955 30.0366 84.2602 29.9836 84.5787 30.046C85.4058 30.2083 86.2731 29.9663 87.177 29.3328C88.0809 28.6994 88.8765 27.8978 89.6151 26.9545ZM135.631 9.64684C134.318 11.4221 132.988 13.1845 131.689 14.9497C130.39 16.715 129.064 18.4804 127.77 20.2493C127.26 20.945 127.308 21.2948 127.916 21.2948C130.105 21.2948 132.314 21.2948 134.524 21.2948C135.173 21.2948 135.502 20.9492 135.553 20.2493C135.684 18.4848 135.802 16.7152 135.946 14.9499C136.09 13.1847 136.188 11.4129 136.36 9.64684C136.382 9.42095 136.332 9.31444 136.15 9.31444C135.947 9.31444 135.789 9.43194 135.631 9.64684ZM135.905 1.37369C138.236 1.37369 140.588 1.37381 142.939 1.37381C143.648 1.37381 143.941 1.73695 143.896 2.4678C143.578 7.66645 143.291 12.8695 142.98 18.0653C142.67 23.2606 142.384 28.4604 142.087 33.6589C142.072 33.9119 141.959 34.1457 141.748 34.3477C141.529 34.5578 141.279 34.6558 140.996 34.6558C139.11 34.6558 137.225 34.656 135.361 34.656C134.732 34.656 134.421 34.3225 134.465 33.6591C134.631 31.1863 134.829 28.7153 135.044 26.2413C135.085 25.7663 134.824 25.5281 134.257 25.5281C131.014 25.5281 127.791 25.5283 124.568 25.5283C124.102 25.5283 123.708 25.7725 123.368 26.2413C121.567 28.7219 119.768 31.1999 117.966 33.6594C117.47 34.336 116.895 34.6563 116.267 34.6563C115.192 34.6563 114.118 34.6564 113.064 34.6564C112.78 34.6564 112.598 34.5528 112.54 34.3483C112.48 34.1411 112.541 33.919 112.736 33.6594C116.132 29.135 119.532 24.5935 122.919 20.0625C126.306 15.5313 129.73 11.008 133.124 6.46221C133.826 5.52174 134.3 4.70005 134.568 4.03557C134.798 3.46451 134.896 2.95937 134.878 2.51249C134.867 2.2289 134.976 1.96893 135.194 1.7302C135.411 1.49148 135.642 1.37369 135.905 1.37369ZM172.939 4.9435C170.162 4.9435 167.274 6.18157 164.269 8.65045C162.758 9.89183 161.423 11.2847 160.307 12.8457C159.191 14.4066 158.233 16.1303 157.474 18.0134C156.719 19.8858 156.272 21.5994 156.131 23.1569C155.99 24.7145 156.201 26.1101 156.707 27.3556C157.717 29.8415 159.561 31.0869 162.278 31.0869C164.163 31.0869 166.227 30.5991 168.446 29.6123C170.648 28.6332 172.683 27.27 174.658 25.6662C175.336 25.1158 175.872 25.095 176.173 25.4275C176.518 25.8084 176.894 26.1562 177.253 26.5213C177.656 26.9314 177.569 27.4626 176.943 28.0442C174.394 30.4118 171.625 32.1905 168.686 33.4438C165.75 34.6963 162.801 35.3166 159.821 35.3166C154.875 35.3166 151.457 33.6965 149.563 30.4466C148.617 28.823 148.146 26.9714 148.19 24.905C148.234 22.8352 148.755 20.5364 149.771 18.0132C150.793 15.4796 152.108 13.17 153.714 11.0975C155.319 9.02704 157.26 7.17649 159.474 5.56281C163.917 2.32405 168.647 0.703369 173.694 0.703369C176.572 0.703369 179.003 1.36515 180.964 2.68356C182.926 4.00265 184.267 5.78115 184.97 8.0347C185.107 8.47402 184.8 8.99689 184.074 9.60263C183.091 10.4227 182.105 11.2374 181.132 12.074C180.773 12.3829 180.442 12.5288 180.138 12.4789C179.853 12.4321 179.671 12.2029 179.645 11.7867C179.367 7.22553 177.155 4.9435 172.939 4.9435ZM195.88 5.60854C194.846 5.60854 193.812 5.60854 192.779 5.60854C191.522 5.60854 190.167 5.84138 188.681 6.32147C188.303 6.44344 188.068 6.44325 187.951 6.32147C187.825 6.19041 187.838 5.97046 187.996 5.65691C188.549 4.55825 189.124 3.47057 189.704 2.37554C190.056 1.71246 190.553 1.3754 191.201 1.3754C198.478 1.3754 205.755 1.3759 213.032 1.3759C213.66 1.3759 213.895 1.71315 213.704 2.37629C213.388 3.47108 213.05 4.55984 212.765 5.65745C212.684 5.97205 212.504 6.192 212.274 6.32195C212.058 6.44466 211.821 6.4422 211.545 6.32176C210.442 5.84014 209.278 5.6089 208.021 5.6089C206.988 5.6089 205.954 5.60873 204.92 5.60873C204.697 5.60873 204.433 5.71344 204.166 5.92018C203.902 6.12515 203.694 6.38757 203.567 6.70253C201.759 11.188 199.95 15.6741 198.143 20.1559C196.338 24.6348 194.528 29.1239 192.72 33.606C192.606 33.8898 192.422 34.1313 192.139 34.3431C191.871 34.5432 191.609 34.6512 191.345 34.6512C189.582 34.6512 187.818 34.6514 186.075 34.6514C185.812 34.6514 185.629 34.548 185.531 34.3433C185.431 34.1363 185.43 33.8899 185.544 33.6062C187.352 29.124 189.162 24.638 190.968 20.1559C192.774 15.6737 194.584 11.188 196.392 6.70235C196.519 6.38757 196.522 6.12484 196.423 5.92C196.324 5.71313 196.143 5.60854 195.88 5.60854Z" fill="#1F2326"/>
<path fill-rule="evenodd" clip-rule="evenodd" d="M64.0293 3.28931V4.41958H220V3.28931H64.0293Z" fill="white"/>
<path fill-rule="evenodd" clip-rule="evenodd" d="M62.7285 7.05713V8.18746H215.292V7.05713H62.7285Z" fill="white"/>
<path fill-rule="evenodd" clip-rule="evenodd" d="M60.2432 10.9988V12.1291H211.978V10.9988H60.2432Z" fill="white"/>
<path fill-rule="evenodd" clip-rule="evenodd" d="M56.7852 14.7664V15.8966H211.741V14.7664H56.7852Z" fill="white"/>
<path fill-rule="evenodd" clip-rule="evenodd" d="M55.1523 18.708V19.8383H210.32V18.708H55.1523Z" fill="white"/>
<path fill-rule="evenodd" clip-rule="evenodd" d="M53.9697 22.4758V23.6061H208.426V22.4758H53.9697Z" fill="white"/>
<path fill-rule="evenodd" clip-rule="evenodd" d="M52.1943 26.2437V27.3739H206.533V26.2437H52.1943Z" fill="white"/>
<path fill-rule="evenodd" clip-rule="evenodd" d="M49.3535 29.4888V30.619H205.112V29.4888H49.3535Z" fill="white"/>
<path fill-rule="evenodd" clip-rule="evenodd" d="M47.46 32.7346V33.8649H202.036V32.7346H47.46Z" fill="white"/>
</svg>
