<svg width="20" height="20" viewBox="0 0 20 20" fill="none" xmlns="http://www.w3.org/2000/svg">
<path d="M9.9998 1.6001C4.93105 1.6001 0.799805 5.15166 0.799805 9.59853C0.799805 12.1782 2.2123 14.4251 4.38418 15.8923C4.38105 15.9782 4.3873 16.1188 4.2748 16.5376C4.13418 17.0579 3.8498 17.7892 3.2748 18.6142L2.86543 19.2001H3.58105C6.05605 19.2001 7.48887 17.586 7.71074 17.3267C8.44824 17.5001 9.20605 17.5938 9.9998 17.5938C15.067 17.5938 19.1998 14.0423 19.1998 9.59697C19.1998 5.15166 15.0686 1.6001 9.9998 1.6001ZM9.9998 2.4001C14.6311 2.4001 18.3998 5.62822 18.3998 9.59853C18.3998 13.5673 14.6311 16.7954 9.9998 16.7954C9.29199 16.7954 8.60293 16.7142 7.89355 16.5485L7.41855 16.4376L7.10293 16.8063C6.82949 17.1267 5.90918 18.0673 4.39355 18.3313C4.68418 17.8095 4.90293 17.2782 5.04512 16.7454C5.15762 16.3329 5.17793 16.1157 5.18262 15.9251L5.20137 15.4798L4.83105 15.2298C2.77793 13.8407 1.5998 11.7876 1.5998 9.59853C1.5998 5.62822 5.36855 2.4001 9.9998 2.4001ZM9.9998 5.43916C9.19981 5.43916 8.56074 5.67978 8.12012 6.16104C7.64043 6.64072 7.44043 7.27979 7.3998 8.03916H8.3998C8.44043 7.6001 8.52012 7.2001 8.63887 6.96103C8.87949 6.52041 9.32012 6.27978 9.96074 6.27978C10.4404 6.27978 10.8389 6.4001 11.0389 6.67978C11.2389 6.92041 11.3607 7.24072 11.3607 7.6001C11.3607 7.87979 11.2795 8.12041 11.1201 8.36103C11.0404 8.52041 10.9201 8.64072 10.7998 8.76103L10.3607 9.2001C9.92012 9.64072 9.64043 10.0001 9.52012 10.3204C9.39981 10.6407 9.32012 11.0798 9.32012 11.6001H10.3201C10.3201 11.1204 10.3592 10.8001 10.4795 10.6001C10.5998 10.3595 10.8404 10.0798 11.1998 9.72041C11.7201 9.24072 12.0404 8.87979 12.1998 8.63916C12.3592 8.4001 12.4389 8.07978 12.4389 7.67978C12.4389 7.03916 12.1998 6.47978 11.7607 6.07978C11.3201 5.63916 10.7201 5.43916 9.9998 5.43916ZM9.32012 12.5204V13.6798H10.3998V12.5204H9.32012Z" fill="#1F2326"/>
</svg>
